<svg width="25" height="24" viewBox="0 0 25 24" fill="none" xmlns="http://www.w3.org/2000/svg">
<path d="M20 15H5C4.60218 15 4.22064 15.158 3.93934 15.4393C3.65804 15.7206 3.5 16.1022 3.5 16.5V18.75C3.5 19.1478 3.65804 19.5294 3.93934 19.8107C4.22064 20.092 4.60218 20.25 5 20.25H20C20.3978 20.25 20.7794 20.092 21.0607 19.8107C21.342 19.5294 21.5 19.1478 21.5 18.75V16.5C21.5 16.1022 21.342 15.7206 21.0607 15.4393C20.7794 15.158 20.3978 15 20 15ZM20 18.75H5V16.5H20V18.75ZM20 8.25H5C4.60218 8.25 4.22064 8.40804 3.93934 8.68934C3.65804 8.97064 3.5 9.35218 3.5 9.75V12C3.5 12.3978 3.65804 12.7794 3.93934 13.0607C4.22064 13.342 4.60218 13.5 5 13.5H20C20.3978 13.5 20.7794 13.342 21.0607 13.0607C21.342 12.7794 21.5 12.3978 21.5 12V9.75C21.5 9.35218 21.342 8.97064 21.0607 8.68934C20.7794 8.40804 20.3978 8.25 20 8.25ZM20 12H5V9.75H20V12ZM9.5 3.75C9.5 3.55109 9.57902 3.36032 9.71967 3.21967C9.86032 3.07902 10.0511 3 10.25 3H11.75V1.5C11.75 1.30109 11.829 1.11032 11.9697 0.96967C12.1103 0.829018 12.3011 0.75 12.5 0.75C12.6989 0.75 12.8897 0.829018 13.0303 0.96967C13.171 1.11032 13.25 1.30109 13.25 1.5V3H14.75C14.9489 3 15.1397 3.07902 15.2803 3.21967C15.421 3.36032 15.5 3.55109 15.5 3.75C15.5 3.94891 15.421 4.13968 15.2803 4.28033C15.1397 4.42098 14.9489 4.5 14.75 4.5H13.25V6C13.25 6.19891 13.171 6.38968 13.0303 6.53033C12.8897 6.67098 12.6989 6.75 12.5 6.75C12.3011 6.75 12.1103 6.67098 11.9697 6.53033C11.829 6.38968 11.75 6.19891 11.75 6V4.5H10.25C10.0511 4.5 9.86032 4.42098 9.71967 4.28033C9.57902 4.13968 9.5 3.94891 9.5 3.75Z" fill="#262626"/>
</svg>
