<svg width="16" height="16" viewBox="0 0 16 16" fill="none" xmlns="http://www.w3.org/2000/svg">
<path d="M14.2775 5.58383L8.2775 1.58383C8.19533 1.52901 8.09877 1.49976 8 1.49976C7.90123 1.49976 7.80467 1.52901 7.7225 1.58383L1.7225 5.58383C1.65401 5.62953 1.59786 5.69143 1.55904 5.76405C1.52023 5.83667 1.49995 5.91774 1.5 6.00008V12.5001C1.5 12.7653 1.60536 13.0197 1.79289 13.2072C1.98043 13.3947 2.23478 13.5001 2.5 13.5001H13.5C13.7652 13.5001 14.0196 13.3947 14.2071 13.2072C14.3946 13.0197 14.5 12.7653 14.5 12.5001V6.00008C14.5001 5.91774 14.4798 5.83667 14.441 5.76405C14.4021 5.69143 14.346 5.62953 14.2775 5.58383ZM8 2.60071L13.1194 6.01383L8.93188 9.00008H7.06938L2.88188 6.01383L8 2.60071ZM2.5 12.5001V6.97071L6.61875 9.90821C6.70355 9.96878 6.80516 10.0013 6.90938 10.0013H9.09062C9.19484 10.0013 9.29645 9.96878 9.38125 9.90821L13.5 6.97071V12.5001H2.5Z" fill="#FF6C1A"/>
</svg>
