<svg width="111" height="80" viewBox="0 0 111 80" fill="none" xmlns="http://www.w3.org/2000/svg">
<path d="M20.4974 0C20.4974 11.0324 20.4974 28.9038 20.4974 39.9362C20.4974 28.9038 11.5486 19.9681 0.5 19.9681C11.5486 19.9681 20.4974 11.0324 20.4974 0Z" fill="#EF7234"/>
<path d="M40.495 0C40.495 11.0324 40.495 28.9038 40.495 39.9362C40.495 28.9038 31.5461 19.9681 20.4976 19.9681C31.5461 19.9681 40.495 11.0324 40.495 0Z" fill="#EF7234"/>
<path d="M60.4925 0C60.4925 11.0324 60.4925 28.9038 60.4925 39.9362C60.4925 28.9038 51.5437 19.9681 40.4951 19.9681C51.5437 19.9681 60.4925 11.0324 60.4925 0Z" fill="#EF7234"/>
<path d="M80.49 0C80.49 11.0324 80.49 28.9038 80.49 39.9362C80.49 28.9038 71.5411 19.9681 60.4926 19.9681C71.5411 19.9681 80.49 11.0324 80.49 0Z" fill="#EF7234"/>
<path d="M100.487 0C100.487 11.0324 100.487 28.9038 100.487 39.9362C100.487 28.9038 91.5382 19.9681 80.4896 19.9681C91.5382 19.9681 100.487 11.0324 100.487 0Z" fill="#EF7234"/>
<path d="M90.5024 80C90.5024 68.9676 90.5024 51.0962 90.5024 40.0638C90.5024 51.0962 99.4513 60.0319 110.5 60.0319C99.4513 60.0319 90.5024 68.9676 90.5024 80Z" fill="#EF7234"/>
<path d="M70.5049 80C70.5049 68.9676 70.5049 51.0962 70.5049 40.0638C70.5049 51.0962 79.4537 60.0319 90.5023 60.0319C79.4537 60.0319 70.5049 68.9676 70.5049 80Z" fill="#EF7234"/>
<path d="M50.5074 80C50.5074 68.9676 50.5074 51.0962 50.5074 40.0638C50.5074 51.0962 59.4563 60.0319 70.5049 60.0319C59.4563 60.0319 50.5074 68.9676 50.5074 80Z" fill="#EF7234"/>
<path d="M30.5101 80C30.5101 68.9676 30.5101 51.0962 30.5101 40.0638C30.5101 51.0962 39.459 60.0319 50.5076 60.0319C39.459 60.0319 30.5101 68.9676 30.5101 80Z" fill="#EF7234"/>
<path d="M10.5127 80C10.5127 68.9676 10.5127 51.0962 10.5127 40.0638C10.5127 51.0962 19.4615 60.0319 30.5101 60.0319C19.4615 60.0319 10.5127 68.9676 10.5127 80Z" fill="#EF7234"/>
</svg>
