<svg width="25" height="24" viewBox="0 0 25 24" fill="none" xmlns="http://www.w3.org/2000/svg">
<path d="M23.4503 14.1002C23.3715 14.1593 23.2818 14.2023 23.1864 14.2267C23.091 14.2511 22.9917 14.2566 22.8942 14.2426C22.7967 14.2287 22.7029 14.1957 22.6182 14.1455C22.5334 14.0953 22.4594 14.029 22.4003 13.9502C21.9482 13.3425 21.3598 12.8495 20.6824 12.5108C20.0051 12.1721 19.2576 11.9972 18.5003 12.0002C18.3528 12.0002 18.2086 11.9567 18.0857 11.8751C17.9628 11.7936 17.8667 11.6776 17.8093 11.5417C17.7704 11.4495 17.7504 11.3503 17.7504 11.2502C17.7504 11.15 17.7704 11.0509 17.8093 10.9586C17.8667 10.8227 17.9628 10.7068 18.0857 10.6252C18.2086 10.5437 18.3528 10.5002 18.5003 10.5002C18.9211 10.5001 19.3335 10.3821 19.6906 10.1594C20.0476 9.93677 20.3351 9.61844 20.5204 9.24058C20.7056 8.86273 20.7812 8.4405 20.7385 8.02185C20.6958 7.6032 20.5365 7.20493 20.2788 6.87225C20.0211 6.53958 19.6753 6.28584 19.2806 6.13987C18.8859 5.9939 18.4582 5.96154 18.046 6.04646C17.6338 6.13139 17.2538 6.3302 16.9489 6.62031C16.6441 6.91043 16.4267 7.28021 16.3215 7.68767C16.2969 7.78308 16.2537 7.87271 16.1945 7.95144C16.1352 8.03017 16.061 8.09645 15.9761 8.14651C15.8913 8.19656 15.7974 8.22941 15.6998 8.24318C15.6022 8.25694 15.5029 8.25135 15.4075 8.22673C15.3121 8.20211 15.2224 8.15893 15.1437 8.09967C15.065 8.04041 14.9987 7.96622 14.9486 7.88134C14.8986 7.79646 14.8657 7.70256 14.852 7.60498C14.8382 7.50741 14.8438 7.40808 14.8684 7.31267C15.0144 6.74765 15.2903 6.22451 15.6741 5.78487C16.0579 5.34523 16.539 5.00124 17.0791 4.78025C17.6192 4.55926 18.2034 4.46738 18.7853 4.51191C19.3672 4.55645 19.9307 4.73618 20.4309 5.0368C20.931 5.33742 21.3542 5.75063 21.6666 6.24356C21.979 6.73648 22.172 7.29552 22.2303 7.87618C22.2887 8.45684 22.2107 9.0431 22.0026 9.58831C21.7944 10.1335 21.4619 10.6226 21.0315 11.0167C22.0514 11.4583 22.9379 12.159 23.6031 13.0492C23.6622 13.1282 23.7051 13.2181 23.7294 13.3137C23.7537 13.4093 23.7589 13.5088 23.7447 13.6064C23.7305 13.704 23.6972 13.7979 23.6467 13.8826C23.5962 13.9673 23.5294 14.0413 23.4503 14.1002ZM18.399 19.8752C18.4533 19.9605 18.4897 20.056 18.5062 20.1558C18.5226 20.2556 18.5186 20.3577 18.4946 20.456C18.4705 20.5542 18.4268 20.6466 18.3661 20.7275C18.3054 20.8084 18.229 20.8762 18.1414 20.9268C18.0539 20.9775 17.9569 21.0099 17.8565 21.022C17.7561 21.0342 17.6543 21.026 17.5571 20.9978C17.46 20.9696 17.3695 20.9221 17.2912 20.8581C17.213 20.794 17.1484 20.7148 17.1015 20.6252C16.6291 19.8252 15.9562 19.1622 15.1493 18.7016C14.3424 18.241 13.4294 17.9988 12.5003 17.9988C11.5712 17.9988 10.6582 18.241 9.85126 18.7016C9.04436 19.1622 8.37149 19.8252 7.89903 20.6252C7.85215 20.7148 7.78762 20.794 7.70932 20.8581C7.63102 20.9221 7.54058 20.9696 7.44344 20.9978C7.34629 21.026 7.24445 21.0342 7.14403 21.022C7.04362 21.0099 6.94671 20.9775 6.85914 20.9268C6.77156 20.8762 6.69513 20.8084 6.63445 20.7275C6.57376 20.6466 6.53007 20.5542 6.50601 20.456C6.48194 20.3577 6.478 20.2556 6.49441 20.1558C6.51083 20.056 6.54727 19.9605 6.60153 19.8752C7.32866 18.6258 8.43734 17.6427 9.76466 17.0702C9.01778 16.4983 8.46887 15.7068 8.1951 14.8069C7.92132 13.9069 7.93644 12.9438 8.23833 12.053C8.54022 11.1621 9.1137 10.3882 9.87816 9.84005C10.6426 9.29194 11.5596 8.99716 12.5003 8.99716C13.4409 8.99716 14.3579 9.29194 15.1224 9.84005C15.8869 10.3882 16.4603 11.1621 16.7622 12.053C17.0641 12.9438 17.0792 13.9069 16.8055 14.8069C16.5317 15.7068 15.9828 16.4983 15.2359 17.0702C16.5632 17.6427 17.6719 18.6258 18.399 19.8752ZM12.5003 16.5002C13.0936 16.5002 13.6736 16.3242 14.167 15.9946C14.6603 15.6649 15.0449 15.1964 15.2719 14.6482C15.499 14.1 15.5584 13.4968 15.4426 12.9149C15.3269 12.333 15.0412 11.7984 14.6216 11.3788C14.202 10.9593 13.6675 10.6736 13.0856 10.5578C12.5036 10.4421 11.9004 10.5015 11.3522 10.7285C10.8041 10.9556 10.3355 11.3401 10.0059 11.8335C9.67623 12.3268 9.50028 12.9068 9.50028 13.5002C9.50028 14.2958 9.81635 15.0589 10.379 15.6215C10.9416 16.1841 11.7046 16.5002 12.5003 16.5002ZM7.25028 11.2502C7.25028 11.0513 7.17127 10.8605 7.03061 10.7198C6.88996 10.5792 6.6992 10.5002 6.50028 10.5002C6.07947 10.5001 5.66709 10.3821 5.31 10.1594C4.95292 9.93677 4.66543 9.61844 4.48019 9.24058C4.29495 8.86273 4.21939 8.4405 4.26209 8.02185C4.3048 7.6032 4.46405 7.20493 4.72176 6.87225C4.97947 6.53958 5.32531 6.28584 5.72 6.13987C6.11469 5.9939 6.54241 5.96154 6.95457 6.04646C7.36672 6.13139 7.7468 6.3302 8.05164 6.62031C8.35647 6.91043 8.57383 7.28021 8.67903 7.68767C8.72876 7.88036 8.853 8.04541 9.02442 8.14651C9.19584 8.2476 9.4004 8.27646 9.5931 8.22673C9.78579 8.177 9.95084 8.05276 10.0519 7.88134C10.153 7.70992 10.1819 7.50536 10.1322 7.31267C9.98614 6.74765 9.71026 6.22451 9.32648 5.78487C8.9427 5.34523 8.46161 5.00124 7.92149 4.78025C7.38137 4.55926 6.79712 4.46738 6.21524 4.51191C5.63336 4.55645 5.06991 4.73618 4.56972 5.0368C4.06952 5.33742 3.64639 5.75063 3.33399 6.24356C3.02159 6.73648 2.82855 7.29552 2.77022 7.87618C2.7119 8.45684 2.7899 9.0431 2.99801 9.58831C3.20613 10.1335 3.53862 10.6226 3.96903 11.0167C2.95024 11.4587 2.0647 12.1594 1.40028 13.0492C1.28081 13.2084 1.22945 13.4084 1.25749 13.6054C1.28553 13.8024 1.39069 13.9802 1.54982 14.0997C1.70895 14.2192 1.90902 14.2705 2.10602 14.2425C2.30302 14.2144 2.48081 14.1093 2.60028 13.9502C3.05233 13.3425 3.64073 12.8495 4.31812 12.5108C4.99551 12.1721 5.74295 11.9972 6.50028 12.0002C6.6992 12.0002 6.88996 11.9211 7.03061 11.7805C7.17127 11.6398 7.25028 11.4491 7.25028 11.2502Z" fill="#262626"/>
</svg>
