<svg width="16" height="14" viewBox="0 0 16 14" fill="none" xmlns="http://www.w3.org/2000/svg">
<path d="M11.75 3.25C11.75 3.08424 11.8158 2.92527 11.9331 2.80806C12.0503 2.69085 12.2092 2.625 12.375 2.625H14.875C15.0408 2.625 15.1997 2.69085 15.3169 2.80806C15.4342 2.92527 15.5 3.08424 15.5 3.25C15.5 3.41576 15.4342 3.57473 15.3169 3.69194C15.1997 3.80915 15.0408 3.875 14.875 3.875H12.375C12.2092 3.875 12.0503 3.80915 11.9331 3.69194C11.8158 3.57473 11.75 3.41576 11.75 3.25ZM1.125 3.875H9.25V5.125C9.25 5.29076 9.31585 5.44973 9.43306 5.56694C9.55027 5.68415 9.70924 5.75 9.875 5.75C10.0408 5.75 10.1997 5.68415 10.3169 5.56694C10.4342 5.44973 10.5 5.29076 10.5 5.125V1.375C10.5 1.20924 10.4342 1.05027 10.3169 0.933058C10.1997 0.815848 10.0408 0.75 9.875 0.75C9.70924 0.75 9.55027 0.815848 9.43306 0.933058C9.31585 1.05027 9.25 1.20924 9.25 1.375V2.625H1.125C0.95924 2.625 0.800269 2.69085 0.683058 2.80806C0.565848 2.92527 0.5 3.08424 0.5 3.25C0.5 3.41576 0.565848 3.57473 0.683058 3.69194C0.800269 3.80915 0.95924 3.875 1.125 3.875ZM14.875 10.125H7.375C7.20924 10.125 7.05027 10.1908 6.93306 10.3081C6.81585 10.4253 6.75 10.5842 6.75 10.75C6.75 10.9158 6.81585 11.0747 6.93306 11.1919C7.05027 11.3092 7.20924 11.375 7.375 11.375H14.875C15.0408 11.375 15.1997 11.3092 15.3169 11.1919C15.4342 11.0747 15.5 10.9158 15.5 10.75C15.5 10.5842 15.4342 10.4253 15.3169 10.3081C15.1997 10.1908 15.0408 10.125 14.875 10.125ZM4.875 8.25C4.70924 8.25 4.55027 8.31585 4.43306 8.43306C4.31585 8.55027 4.25 8.70924 4.25 8.875V10.125H1.125C0.95924 10.125 0.800269 10.1908 0.683058 10.3081C0.565848 10.4253 0.5 10.5842 0.5 10.75C0.5 10.9158 0.565848 11.0747 0.683058 11.1919C0.800269 11.3092 0.95924 11.375 1.125 11.375H4.25V12.625C4.25 12.7908 4.31585 12.9497 4.43306 13.0669C4.55027 13.1842 4.70924 13.25 4.875 13.25C5.04076 13.25 5.19973 13.1842 5.31694 13.0669C5.43415 12.9497 5.5 12.7908 5.5 12.625V8.875C5.5 8.70924 5.43415 8.55027 5.31694 8.43306C5.19973 8.31585 5.04076 8.25 4.875 8.25Z" fill="#262626"/>
</svg>
