<svg width="13" height="13" viewBox="0 0 13 13" fill="none" xmlns="http://www.w3.org/2000/svg">
<path d="M11.8981 8.90387L8.95376 7.58449L8.94563 7.58074C8.79278 7.51537 8.62603 7.48913 8.46049 7.50441C8.29494 7.51968 8.13581 7.57599 7.99751 7.66824C7.98122 7.679 7.96557 7.69068 7.95063 7.70324L6.42938 9.00012C5.46563 8.53199 4.47063 7.54449 4.00251 6.59324L5.30126 5.04887C5.31376 5.03324 5.32563 5.01762 5.33688 5.00074C5.42715 4.86281 5.48192 4.70469 5.49631 4.54048C5.5107 4.37626 5.48428 4.21103 5.41938 4.05949V4.05199L4.09626 1.10262C4.01047 0.904658 3.86296 0.739752 3.67575 0.632517C3.48854 0.525281 3.27166 0.481468 3.05751 0.507618C2.21061 0.619059 1.43324 1.03497 0.870589 1.67768C0.307935 2.32038 -0.00152558 3.14592 5.6554e-06 4.00012C5.6554e-06 8.96262 4.03751 13.0001 9.00001 13.0001C9.8542 13.0016 10.6797 12.6922 11.3224 12.1295C11.9651 11.5669 12.3811 10.7895 12.4925 9.94262C12.5187 9.72853 12.475 9.51171 12.3679 9.32451C12.2607 9.13731 12.096 8.98976 11.8981 8.90387ZM9.00001 12.0001C6.87898 11.9978 4.8455 11.1542 3.34571 9.65441C1.84592 8.15462 1.00232 6.12114 1.00001 4.00012C0.997654 3.3898 1.21754 2.79949 1.61859 2.33943C2.01964 1.87938 2.57444 1.58103 3.17938 1.50012C3.17913 1.50261 3.17913 1.50512 3.17938 1.50762L4.49188 4.44512L3.20001 5.99137C3.18689 6.00646 3.17498 6.02255 3.16438 6.03949C3.07033 6.18382 3.01515 6.34999 3.0042 6.52191C2.99325 6.69382 3.0269 6.86565 3.10188 7.02074C3.66813 8.17887 4.83501 9.33699 6.00563 9.90262C6.16186 9.9769 6.33468 10.0094 6.50722 9.99689C6.67976 9.9844 6.8461 9.92737 6.99001 9.83137C7.00605 9.82056 7.02149 9.80887 7.03626 9.79637L8.55563 8.50012L11.4931 9.81574C11.4931 9.81574 11.4981 9.81574 11.5 9.81574C11.4201 10.4215 11.1222 10.9775 10.662 11.3795C10.2019 11.7815 9.61104 12.0022 9.00001 12.0001Z" fill="#FF6C1A"/>
</svg>
