<svg width="15" height="13" viewBox="0 0 15 13" fill="none" xmlns="http://www.w3.org/2000/svg">
<path d="M14.3049 0.63676C14.2274 0.569865 14.1332 0.525376 14.0323 0.508085C13.9314 0.490794 13.8277 0.501357 13.7324 0.538635L1.06616 5.49551C0.886654 5.56531 0.734679 5.69154 0.633117 5.85519C0.531555 6.01884 0.485903 6.21105 0.503036 6.40289C0.520168 6.59473 0.599157 6.77582 0.72811 6.91888C0.857063 7.06194 1.029 7.15925 1.21804 7.19614L4.49991 7.84051V11.4999C4.49927 11.6992 4.5585 11.8941 4.66994 12.0594C4.78138 12.2247 4.93988 12.3526 5.12491 12.4268C5.30966 12.5022 5.51283 12.5203 5.708 12.4787C5.90318 12.4372 6.08133 12.3378 6.21929 12.1936L7.80179 10.5524L10.3124 12.7499C10.4935 12.9106 10.7272 12.9995 10.9693 12.9999C11.0754 12.9998 11.1808 12.9831 11.2818 12.9505C11.4468 12.8982 11.5951 12.8035 11.7121 12.676C11.8291 12.5485 11.9107 12.3925 11.9487 12.2236L14.4855 1.18739C14.5082 1.08785 14.5034 0.984023 14.4716 0.887023C14.4398 0.790023 14.3822 0.703511 14.3049 0.63676ZM10.4837 2.88676L4.88429 6.89676L1.78429 6.28864L10.4837 2.88676ZM5.49991 11.4999V8.53239L7.04929 9.89114L5.49991 11.4999ZM10.9705 11.9999L5.80304 7.46864L13.2405 2.13801L10.9705 11.9999Z" fill="#FF6C1A"/>
</svg>
