<svg width="14" height="14" viewBox="0 0 14 14" fill="none" xmlns="http://www.w3.org/2000/svg">
<path d="M7 0.5C5.71442 0.5 4.45772 0.881218 3.3888 1.59545C2.31988 2.30968 1.48676 3.32484 0.994786 4.51256C0.502816 5.70028 0.374095 7.00721 0.624899 8.26809C0.875703 9.52896 1.49477 10.6872 2.40381 11.5962C3.31285 12.5052 4.47104 13.1243 5.73192 13.3751C6.99279 13.6259 8.29973 13.4972 9.48744 13.0052C10.6752 12.5132 11.6903 11.6801 12.4046 10.6112C13.1188 9.54229 13.5 8.28558 13.5 7C13.4982 5.27665 12.8128 3.62441 11.5942 2.40582C10.3756 1.18722 8.72335 0.50182 7 0.5ZM3.63 11.3438C3.99171 10.7781 4.49001 10.3125 5.07895 9.99004C5.6679 9.66756 6.32855 9.49854 7 9.49854C7.67146 9.49854 8.3321 9.66756 8.92105 9.99004C9.51 10.3125 10.0083 10.7781 10.37 11.3438C9.40646 12.0931 8.22064 12.5 7 12.5C5.77936 12.5 4.59354 12.0931 3.63 11.3438ZM5 6.5C5 6.10444 5.1173 5.71776 5.33706 5.38886C5.55683 5.05996 5.86918 4.80362 6.23464 4.65224C6.60009 4.50087 7.00222 4.46126 7.39018 4.53843C7.77815 4.6156 8.13451 4.80608 8.41422 5.08579C8.69392 5.36549 8.8844 5.72186 8.96157 6.10982C9.03874 6.49778 8.99914 6.89991 8.84776 7.26537C8.69639 7.63082 8.44004 7.94318 8.11114 8.16294C7.78224 8.3827 7.39557 8.5 7 8.5C6.46957 8.5 5.96086 8.28929 5.58579 7.91421C5.21072 7.53914 5 7.03043 5 6.5ZM11.11 10.6506C10.5524 9.84255 9.76824 9.21739 8.85625 8.85375C9.34614 8.4679 9.70361 7.93899 9.87896 7.34056C10.0543 6.74213 10.0388 6.10393 9.83464 5.51472C9.63046 4.9255 9.24774 4.41455 8.73971 4.05293C8.23168 3.69131 7.62359 3.49699 7 3.49699C6.37641 3.49699 5.76832 3.69131 5.26029 4.05293C4.75226 4.41455 4.36955 4.9255 4.16537 5.51472C3.96119 6.10393 3.9457 6.74213 4.12105 7.34056C4.2964 7.93899 4.65387 8.4679 5.14375 8.85375C4.23176 9.21739 3.44765 9.84255 2.89 10.6506C2.18536 9.85823 1.7248 8.87903 1.56378 7.83094C1.40276 6.78285 1.54816 5.71056 1.98245 4.74319C2.41675 3.77582 3.12142 2.95461 4.01163 2.37846C4.90184 1.80231 5.93962 1.49578 7 1.49578C8.06039 1.49578 9.09817 1.80231 9.98838 2.37846C10.8786 2.95461 11.5833 3.77582 12.0176 4.74319C12.4518 5.71056 12.5972 6.78285 12.4362 7.83094C12.2752 8.87903 11.8146 9.85823 11.11 10.6506Z" fill="#FF6C1A"/>
</svg>
