<svg width="49" height="48" viewBox="0 0 49 48" fill="none" xmlns="http://www.w3.org/2000/svg">
<path opacity="0.4" fill-rule="evenodd" clip-rule="evenodd" d="M33.4996 9C29.542 9 26.146 11.4206 24.7182 14.868C24.4014 15.6334 23.5238 15.9969 22.7584 15.6799C21.9932 15.3629 21.6296 14.4855 21.9466 13.7201C23.8224 9.1908 28.2866 6 33.4996 6C38.7128 6 43.177 9.1908 45.0528 13.7201C45.3698 14.4855 45.0062 15.3629 44.2408 15.6799C43.4756 15.9969 42.598 15.6334 42.281 14.868C40.8534 11.4206 37.4574 9 33.4996 9Z" fill="#8F49E9"/>
<path opacity="0.7" fill-rule="evenodd" clip-rule="evenodd" d="M33.5013 14C31.4565 14 29.7266 15.3649 29.1806 17.2364C28.9486 18.0317 28.1156 18.4882 27.3204 18.2562C26.5252 18.0241 26.0686 17.1913 26.3006 16.396C27.2102 13.2794 30.0877 11 33.5013 11C36.9149 11 39.7922 13.2794 40.7016 16.396C40.9336 17.1913 40.4772 18.0241 39.6818 18.2562C38.8866 18.4882 38.0538 18.0317 37.8218 17.2364C37.2756 15.3649 35.5459 14 33.5013 14Z" fill="#8F49E9"/>
<path fill-rule="evenodd" clip-rule="evenodd" d="M4.5 31.5C4.5 27.7288 4.5 25.8432 5.67158 24.6716C6.84314 23.5 8.72876 23.5 12.5 23.5H36.5C40.2712 23.5 42.1568 23.5 43.3284 24.6716C44.5 25.8432 44.5 27.7288 44.5 31.5C44.5 35.2712 44.5 37.1568 43.3284 38.3284C42.1568 39.5 40.2712 39.5 36.5 39.5H12.5C8.72876 39.5 6.84314 39.5 5.67158 38.3284C4.5 37.1568 4.5 35.2712 4.5 31.5ZM12.5 33.5C13.6046 33.5 14.5 32.6046 14.5 31.5C14.5 30.3954 13.6046 29.5 12.5 29.5C11.3954 29.5 10.5 30.3954 10.5 31.5C10.5 32.6046 11.3954 33.5 12.5 33.5ZM18.5 33.5C19.6046 33.5 20.5 32.6046 20.5 31.5C20.5 30.3954 19.6046 29.5 18.5 29.5C17.3954 29.5 16.5 30.3954 16.5 31.5C16.5 32.6046 17.3954 33.5 18.5 33.5Z" fill="#8F49E9"/>
<path d="M35 17.5C35 16.6716 34.3284 16 33.5 16C32.6716 16 32 16.6716 32 17.5V23.5H35V17.5Z" fill="#8F49E9"/>
<path fill-rule="evenodd" clip-rule="evenodd" d="M9.5 16C7.143 16 5.96444 16 5.23222 15.2678C4.5 14.5355 4.5 13.357 4.5 11C4.5 8.64298 4.5 7.46447 5.23222 6.73223C5.96444 6 7.143 6 9.5 6C11.857 6 13.0356 6 13.7678 6.73223C14.5 7.46447 14.5 8.64298 14.5 11C14.5 13.357 14.5 14.5355 13.7678 15.2678C13.0356 16 11.857 16 9.5 16ZM6.68856 8.18852C7.014 7.86309 7.54156 7.86309 7.867 8.18852L9.5 9.82149L11.133 8.18852C11.4584 7.86309 11.986 7.86309 12.3114 8.18852C12.6369 8.51396 12.6369 9.0416 12.3114 9.36703L10.6786 11L12.3114 12.633C12.6369 12.9584 12.6369 13.486 12.3114 13.8115C11.986 14.1369 11.4584 14.1369 11.133 13.8115L9.5 12.1785L7.867 13.8115C7.54156 14.1369 7.014 14.1369 6.68856 13.8115C6.36311 13.486 6.36311 12.9584 6.68856 12.633L8.32145 11L6.68856 9.36703C6.36311 9.0416 6.36311 8.51396 6.68856 8.18852Z" fill="#EB5454"/>
</svg>
