<svg width="753" height="968" viewBox="0 0 753 968" fill="none" xmlns="http://www.w3.org/2000/svg">
<path d="M191 506.145L189 958M191 506.145C179.909 506.107 177.533 506.075 168 506.051L127 506C22.5 506 8 536 8 581.5V639L6 958H189M191 506.145C208.549 506.205 243.886 506.278 264.5 506.356M189 958H376.5M376.5 506.791V958M376.5 506.791C356.512 506.737 325.743 506.675 306.5 506.609L264.5 506.955M376.5 506.791C384.803 506.813 394.144 506.834 402.5 506.853L444 506.92C454.372 506.936 457.72 506.947 468 506.955V689H736.517L734.5 702M376.5 958H388.5" stroke="#BFBFBF" stroke-width="10"/>
<path d="M385 958H503.5C565 958 703.5 906.5 735 699" stroke="#BFBFBF" stroke-width="10"/>
<path d="M199 958H367" stroke="#BFBFBF" stroke-width="10"/>
<path d="M12 958L107 958" stroke="#BFBFBF" stroke-width="10"/>
<path d="M326.5 8.50004V383.5M326.5 383.5H467.5V303.5H496H539H562.5V206H747.5V5H52.5V160.5L21 206C20.5919 225.01 20.1505 248.254 19.7471 273.5C19.4483 292.203 19.1704 315.005 18.9424 335V414H21H142.5H179.5V383.5H326.5Z" stroke="#BFBFBF" stroke-width="10"/>
<rect x="144" y="584" width="36" height="36" rx="18" fill="#AAABAF"/>
<path d="M163 595.586V607H161.117V597.82L158.328 598.766V597.211L162.773 595.586H163Z" fill="#FDFDFD"/>
<rect x="330" y="584" width="36" height="36" rx="18" fill="#AAABAF"/>
<path d="M349 595.586V607H347.117V597.82L344.328 598.766V597.211L348.773 595.586H349Z" fill="#FDFDFD"/>
<rect x="698" y="72" width="36" height="36" rx="18" fill="#AAABAF"/>
<path d="M713.836 89.7109L712.336 89.3438L712.953 83.625H719.086V85.2188H714.516L714.203 88.0078C714.38 87.9036 714.625 87.8021 714.938 87.7031C715.25 87.599 715.607 87.5469 716.008 87.5469C716.544 87.5469 717.023 87.6354 717.445 87.8125C717.872 87.9844 718.234 88.237 718.531 88.5703C718.828 88.8984 719.055 89.2995 719.211 89.7734C719.367 90.2422 719.445 90.7708 719.445 91.3594C719.445 91.8854 719.367 92.3776 719.211 92.8359C719.06 93.2943 718.831 93.6979 718.523 94.0469C718.216 94.3958 717.828 94.6693 717.359 94.8672C716.896 95.0599 716.346 95.1562 715.711 95.1562C715.237 95.1562 714.781 95.0885 714.344 94.9531C713.911 94.8125 713.523 94.6068 713.18 94.3359C712.836 94.0599 712.56 93.7214 712.352 93.3203C712.143 92.9141 712.023 92.4479 711.992 91.9219H713.836C713.883 92.2917 713.984 92.6068 714.141 92.8672C714.302 93.1224 714.516 93.3177 714.781 93.4531C715.047 93.5885 715.354 93.6562 715.703 93.6562C716.021 93.6562 716.294 93.6016 716.523 93.4922C716.753 93.3776 716.943 93.2161 717.094 93.0078C717.25 92.7943 717.365 92.5443 717.438 92.2578C717.516 91.9714 717.555 91.6536 717.555 91.3047C717.555 90.9714 717.51 90.6667 717.422 90.3906C717.339 90.1146 717.211 89.875 717.039 89.6719C716.872 89.4688 716.661 89.3125 716.406 89.2031C716.151 89.0885 715.857 89.0312 715.523 89.0312C715.076 89.0312 714.732 89.0964 714.492 89.2266C714.258 89.3568 714.039 89.5182 713.836 89.7109Z" fill="#FDFDFD"/>
<rect x="698" y="117" width="36" height="36" rx="18" fill="#AAABAF"/>
<path d="M713.375 138.516H713.531C714.25 138.516 714.849 138.422 715.328 138.234C715.812 138.042 716.198 137.776 716.484 137.438C716.771 137.099 716.977 136.701 717.102 136.242C717.227 135.784 717.289 135.286 717.289 134.75V132.789C717.289 132.326 717.24 131.919 717.141 131.57C717.047 131.216 716.911 130.922 716.734 130.688C716.562 130.448 716.362 130.268 716.133 130.148C715.909 130.029 715.667 129.969 715.406 129.969C715.12 129.969 714.862 130.034 714.633 130.164C714.409 130.289 714.219 130.464 714.062 130.688C713.911 130.906 713.794 131.164 713.711 131.461C713.633 131.753 713.594 132.065 713.594 132.398C713.594 132.711 713.63 133.013 713.703 133.305C713.781 133.591 713.896 133.846 714.047 134.07C714.198 134.294 714.388 134.471 714.617 134.602C714.846 134.732 715.115 134.797 715.422 134.797C715.714 134.797 715.982 134.742 716.227 134.633C716.471 134.518 716.685 134.365 716.867 134.172C717.049 133.979 717.193 133.763 717.297 133.523C717.401 133.284 717.458 133.039 717.469 132.789L718.188 133.008C718.188 133.404 718.104 133.794 717.938 134.18C717.776 134.56 717.549 134.909 717.258 135.227C716.971 135.539 716.635 135.789 716.25 135.977C715.87 136.164 715.456 136.258 715.008 136.258C714.466 136.258 713.987 136.156 713.57 135.953C713.159 135.745 712.815 135.464 712.539 135.109C712.268 134.755 712.065 134.349 711.93 133.891C711.794 133.432 711.727 132.951 711.727 132.445C711.727 131.898 711.81 131.385 711.977 130.906C712.143 130.427 712.385 130.005 712.703 129.641C713.021 129.271 713.406 128.984 713.859 128.781C714.318 128.573 714.836 128.469 715.414 128.469C716.029 128.469 716.568 128.589 717.031 128.828C717.495 129.068 717.885 129.398 718.203 129.82C718.521 130.242 718.76 130.732 718.922 131.289C719.083 131.846 719.164 132.445 719.164 133.086V133.75C719.164 134.422 719.104 135.07 718.984 135.695C718.865 136.315 718.669 136.891 718.398 137.422C718.133 137.948 717.781 138.411 717.344 138.812C716.911 139.208 716.38 139.518 715.75 139.742C715.125 139.961 714.391 140.07 713.547 140.07H713.375V138.516Z" fill="#FDFDFD"/>
<rect x="238" y="912" width="36" height="36" rx="18" fill="#AAABAF"/>
<path d="M253.836 929.711L252.336 929.344L252.953 923.625H259.086V925.219H254.516L254.203 928.008C254.38 927.904 254.625 927.802 254.938 927.703C255.25 927.599 255.607 927.547 256.008 927.547C256.544 927.547 257.023 927.635 257.445 927.812C257.872 927.984 258.234 928.237 258.531 928.57C258.828 928.898 259.055 929.299 259.211 929.773C259.367 930.242 259.445 930.771 259.445 931.359C259.445 931.885 259.367 932.378 259.211 932.836C259.06 933.294 258.831 933.698 258.523 934.047C258.216 934.396 257.828 934.669 257.359 934.867C256.896 935.06 256.346 935.156 255.711 935.156C255.237 935.156 254.781 935.089 254.344 934.953C253.911 934.812 253.523 934.607 253.18 934.336C252.836 934.06 252.56 933.721 252.352 933.32C252.143 932.914 252.023 932.448 251.992 931.922H253.836C253.883 932.292 253.984 932.607 254.141 932.867C254.302 933.122 254.516 933.318 254.781 933.453C255.047 933.589 255.354 933.656 255.703 933.656C256.021 933.656 256.294 933.602 256.523 933.492C256.753 933.378 256.943 933.216 257.094 933.008C257.25 932.794 257.365 932.544 257.438 932.258C257.516 931.971 257.555 931.654 257.555 931.305C257.555 930.971 257.51 930.667 257.422 930.391C257.339 930.115 257.211 929.875 257.039 929.672C256.872 929.469 256.661 929.312 256.406 929.203C256.151 929.089 255.857 929.031 255.523 929.031C255.076 929.031 254.732 929.096 254.492 929.227C254.258 929.357 254.039 929.518 253.836 929.711Z" fill="#FDFDFD"/>
<rect x="518" y="700.5" width="36" height="36" rx="18" fill="#AAABAF"/>
<path d="M537 712.086V723.5H535.117V714.32L532.328 715.266V713.711L536.773 712.086H537Z" fill="#FDFDFD"/>
<rect x="172" y="17.5" width="36" height="36" rx="18" fill="#AAABAF"/>
<path d="M193.484 39V40.5H185.859V39.2109L189.562 35.1719C189.969 34.7135 190.289 34.3177 190.523 33.9844C190.758 33.651 190.922 33.3516 191.016 33.0859C191.115 32.8151 191.164 32.5521 191.164 32.2969C191.164 31.9375 191.096 31.6224 190.961 31.3516C190.831 31.0755 190.638 30.8594 190.383 30.7031C190.128 30.5417 189.818 30.4609 189.453 30.4609C189.031 30.4609 188.677 30.5521 188.391 30.7344C188.104 30.9167 187.888 31.1693 187.742 31.4922C187.596 31.8099 187.523 32.1745 187.523 32.5859H185.641C185.641 31.9245 185.792 31.3203 186.094 30.7734C186.396 30.2214 186.833 29.7839 187.406 29.4609C187.979 29.1328 188.669 28.9688 189.477 28.9688C190.237 28.9688 190.883 29.0964 191.414 29.3516C191.945 29.6068 192.349 29.9688 192.625 30.4375C192.906 30.9062 193.047 31.4609 193.047 32.1016C193.047 32.4557 192.99 32.8073 192.875 33.1562C192.76 33.5052 192.596 33.8542 192.383 34.2031C192.174 34.5469 191.927 34.8932 191.641 35.2422C191.354 35.5859 191.039 35.9349 190.695 36.2891L188.234 39H193.484Z" fill="#FDFDFD"/>
<rect x="278" y="334" width="36" height="36" rx="18" fill="#AAABAF"/>
<path d="M293.836 351.711L292.336 351.344L292.953 345.625H299.086V347.219H294.516L294.203 350.008C294.38 349.904 294.625 349.802 294.938 349.703C295.25 349.599 295.607 349.547 296.008 349.547C296.544 349.547 297.023 349.635 297.445 349.812C297.872 349.984 298.234 350.237 298.531 350.57C298.828 350.898 299.055 351.299 299.211 351.773C299.367 352.242 299.445 352.771 299.445 353.359C299.445 353.885 299.367 354.378 299.211 354.836C299.06 355.294 298.831 355.698 298.523 356.047C298.216 356.396 297.828 356.669 297.359 356.867C296.896 357.06 296.346 357.156 295.711 357.156C295.237 357.156 294.781 357.089 294.344 356.953C293.911 356.812 293.523 356.607 293.18 356.336C292.836 356.06 292.56 355.721 292.352 355.32C292.143 354.914 292.023 354.448 291.992 353.922H293.836C293.883 354.292 293.984 354.607 294.141 354.867C294.302 355.122 294.516 355.318 294.781 355.453C295.047 355.589 295.354 355.656 295.703 355.656C296.021 355.656 296.294 355.602 296.523 355.492C296.753 355.378 296.943 355.216 297.094 355.008C297.25 354.794 297.365 354.544 297.438 354.258C297.516 353.971 297.555 353.654 297.555 353.305C297.555 352.971 297.51 352.667 297.422 352.391C297.339 352.115 297.211 351.875 297.039 351.672C296.872 351.469 296.661 351.312 296.406 351.203C296.151 351.089 295.857 351.031 295.523 351.031C295.076 351.031 294.732 351.096 294.492 351.227C294.258 351.357 294.039 351.518 293.836 351.711Z" fill="#FDFDFD"/>
<rect x="279" y="259" width="36" height="36" rx="18" fill="#AAABAF"/>
<path d="M300.695 277.945V279.445H292.492L292.43 278.312L297.336 270.625H298.844L297.211 273.422L294.391 277.945H300.695ZM299.273 270.625V282H297.391V270.625H299.273Z" fill="#FDFDFD"/>
<rect x="167" y="208" width="36" height="36" rx="18" fill="#AAABAF"/>
<path d="M188.414 219.625V220.656L183.867 231H181.883L186.422 221.125H180.531V219.625H188.414Z" fill="#FDFDFD"/>
<rect x="35" y="208" width="36" height="36" rx="18" fill="#AAABAF"/>
<path d="M56.2969 227.898C56.2969 228.607 56.1328 229.203 55.8047 229.688C55.4766 230.172 55.0286 230.539 54.4609 230.789C53.8984 231.034 53.263 231.156 52.5547 231.156C51.8464 231.156 51.2083 231.034 50.6406 230.789C50.0729 230.539 49.625 230.172 49.2969 229.688C48.9688 229.203 48.8047 228.607 48.8047 227.898C48.8047 227.43 48.8958 227.005 49.0781 226.625C49.2604 226.24 49.5182 225.909 49.8516 225.633C50.1901 225.352 50.5859 225.135 51.0391 224.984C51.4974 224.833 51.9974 224.758 52.5391 224.758C53.2578 224.758 53.901 224.891 54.4688 225.156C55.0365 225.422 55.4818 225.789 55.8047 226.258C56.1328 226.727 56.2969 227.273 56.2969 227.898ZM54.4062 227.805C54.4062 227.424 54.3281 227.091 54.1719 226.805C54.0156 226.518 53.7969 226.297 53.5156 226.141C53.2344 225.984 52.9089 225.906 52.5391 225.906C52.1641 225.906 51.8385 225.984 51.5625 226.141C51.2865 226.297 51.0703 226.518 50.9141 226.805C50.763 227.091 50.6875 227.424 50.6875 227.805C50.6875 228.19 50.763 228.523 50.9141 228.805C51.0651 229.081 51.2812 229.292 51.5625 229.438C51.8438 229.583 52.1745 229.656 52.5547 229.656C52.9349 229.656 53.263 229.583 53.5391 229.438C53.8151 229.292 54.0286 229.081 54.1797 228.805C54.3307 228.523 54.4062 228.19 54.4062 227.805ZM56.0391 222.617C56.0391 223.185 55.888 223.69 55.5859 224.133C55.2891 224.576 54.8776 224.924 54.3516 225.18C53.8255 225.43 53.2266 225.555 52.5547 225.555C51.8776 225.555 51.2734 225.43 50.7422 225.18C50.2161 224.924 49.8021 224.576 49.5 224.133C49.2031 223.69 49.0547 223.185 49.0547 222.617C49.0547 221.94 49.2031 221.37 49.5 220.906C49.8021 220.438 50.2161 220.081 50.7422 219.836C51.2682 219.591 51.8698 219.469 52.5469 219.469C53.224 219.469 53.8255 219.591 54.3516 219.836C54.8776 220.081 55.2891 220.438 55.5859 220.906C55.888 221.37 56.0391 221.94 56.0391 222.617ZM54.1562 222.68C54.1562 222.341 54.0885 222.044 53.9531 221.789C53.8229 221.529 53.638 221.326 53.3984 221.18C53.1589 221.034 52.875 220.961 52.5469 220.961C52.2188 220.961 51.9349 221.031 51.6953 221.172C51.4557 221.312 51.2708 221.51 51.1406 221.766C51.0104 222.021 50.9453 222.326 50.9453 222.68C50.9453 223.029 51.0104 223.333 51.1406 223.594C51.2708 223.849 51.4557 224.049 51.6953 224.195C51.9401 224.341 52.2266 224.414 52.5547 224.414C52.8828 224.414 53.1667 224.341 53.4062 224.195C53.6458 224.049 53.8307 223.849 53.9609 223.594C54.0911 223.333 54.1562 223.029 54.1562 222.68Z" fill="#FDFDFD"/>
<rect x="142" y="748" width="36" height="36" rx="18" fill="#AAABAF"/>
<path d="M163.484 769.5V771H155.859V769.711L159.562 765.672C159.969 765.214 160.289 764.818 160.523 764.484C160.758 764.151 160.922 763.852 161.016 763.586C161.115 763.315 161.164 763.052 161.164 762.797C161.164 762.438 161.096 762.122 160.961 761.852C160.831 761.576 160.638 761.359 160.383 761.203C160.128 761.042 159.818 760.961 159.453 760.961C159.031 760.961 158.677 761.052 158.391 761.234C158.104 761.417 157.888 761.669 157.742 761.992C157.596 762.31 157.523 762.674 157.523 763.086H155.641C155.641 762.424 155.792 761.82 156.094 761.273C156.396 760.721 156.833 760.284 157.406 759.961C157.979 759.633 158.669 759.469 159.477 759.469C160.237 759.469 160.883 759.596 161.414 759.852C161.945 760.107 162.349 760.469 162.625 760.938C162.906 761.406 163.047 761.961 163.047 762.602C163.047 762.956 162.99 763.307 162.875 763.656C162.76 764.005 162.596 764.354 162.383 764.703C162.174 765.047 161.927 765.393 161.641 765.742C161.354 766.086 161.039 766.435 160.695 766.789L158.234 769.5H163.484Z" fill="#FDFDFD"/>
<rect x="330" y="687.5" width="36" height="36" rx="18" fill="#AAABAF"/>
<path d="M351.484 709V710.5H343.859V709.211L347.562 705.172C347.969 704.714 348.289 704.318 348.523 703.984C348.758 703.651 348.922 703.352 349.016 703.086C349.115 702.815 349.164 702.552 349.164 702.297C349.164 701.938 349.096 701.622 348.961 701.352C348.831 701.076 348.638 700.859 348.383 700.703C348.128 700.542 347.818 700.461 347.453 700.461C347.031 700.461 346.677 700.552 346.391 700.734C346.104 700.917 345.888 701.169 345.742 701.492C345.596 701.81 345.523 702.174 345.523 702.586H343.641C343.641 701.924 343.792 701.32 344.094 700.773C344.396 700.221 344.833 699.784 345.406 699.461C345.979 699.133 346.669 698.969 347.477 698.969C348.237 698.969 348.883 699.096 349.414 699.352C349.945 699.607 350.349 699.969 350.625 700.438C350.906 700.906 351.047 701.461 351.047 702.102C351.047 702.456 350.99 702.807 350.875 703.156C350.76 703.505 350.596 703.854 350.383 704.203C350.174 704.547 349.927 704.893 349.641 705.242C349.354 705.586 349.039 705.935 348.695 706.289L346.234 709H351.484Z" fill="#FDFDFD"/>
<rect x="329" y="774" width="36" height="36" rx="18" fill="#AAABAF"/>
<path d="M345.07 790.461H346.195C346.633 790.461 346.995 790.385 347.281 790.234C347.573 790.083 347.789 789.875 347.93 789.609C348.07 789.344 348.141 789.039 348.141 788.695C348.141 788.336 348.076 788.029 347.945 787.773C347.82 787.513 347.628 787.312 347.367 787.172C347.112 787.031 346.786 786.961 346.391 786.961C346.057 786.961 345.755 787.029 345.484 787.164C345.219 787.294 345.008 787.482 344.852 787.727C344.695 787.966 344.617 788.253 344.617 788.586H342.727C342.727 787.982 342.885 787.445 343.203 786.977C343.521 786.508 343.953 786.141 344.5 785.875C345.052 785.604 345.672 785.469 346.359 785.469C347.094 785.469 347.734 785.591 348.281 785.836C348.833 786.076 349.263 786.435 349.57 786.914C349.878 787.393 350.031 787.987 350.031 788.695C350.031 789.018 349.956 789.346 349.805 789.68C349.654 790.013 349.43 790.318 349.133 790.594C348.836 790.865 348.466 791.086 348.023 791.258C347.581 791.424 347.068 791.508 346.484 791.508H345.07V790.461ZM345.07 791.93V790.898H346.484C347.151 790.898 347.719 790.977 348.188 791.133C348.661 791.289 349.047 791.505 349.344 791.781C349.641 792.052 349.857 792.362 349.992 792.711C350.133 793.06 350.203 793.43 350.203 793.82C350.203 794.352 350.107 794.826 349.914 795.242C349.727 795.654 349.458 796.003 349.109 796.289C348.76 796.576 348.352 796.792 347.883 796.938C347.419 797.083 346.914 797.156 346.367 797.156C345.878 797.156 345.409 797.089 344.961 796.953C344.513 796.818 344.112 796.617 343.758 796.352C343.404 796.081 343.122 795.745 342.914 795.344C342.711 794.938 342.609 794.469 342.609 793.938H344.492C344.492 794.276 344.57 794.576 344.727 794.836C344.888 795.091 345.112 795.292 345.398 795.438C345.69 795.583 346.023 795.656 346.398 795.656C346.794 795.656 347.135 795.586 347.422 795.445C347.708 795.305 347.927 795.096 348.078 794.82C348.234 794.544 348.312 794.211 348.312 793.82C348.312 793.378 348.227 793.018 348.055 792.742C347.883 792.466 347.638 792.263 347.32 792.133C347.003 791.997 346.628 791.93 346.195 791.93H345.07Z" fill="#FDFDFD"/>
<rect x="329" y="912" width="36" height="36" rx="18" fill="#AAABAF"/>
<path d="M350.695 930.945V932.445H342.492L342.43 931.312L347.336 923.625H348.844L347.211 926.422L344.391 930.945H350.695ZM349.273 923.625V935H347.391V923.625H349.273Z" fill="#FDFDFD"/>
<rect x="388" y="801.5" width="36" height="36" rx="18" fill="#AAABAF"/>
<path d="M409.695 820.445V821.945H401.492L401.43 820.812L406.336 813.125H407.844L406.211 815.922L403.391 820.445H409.695ZM408.273 813.125V824.5H406.391V813.125H408.273Z" fill="#FDFDFD"/>
<rect x="446" y="895" width="36" height="36" rx="18" fill="#AAABAF"/>
<path d="M461.836 912.711L460.336 912.344L460.953 906.625H467.086V908.219H462.516L462.203 911.008C462.38 910.904 462.625 910.802 462.938 910.703C463.25 910.599 463.607 910.547 464.008 910.547C464.544 910.547 465.023 910.635 465.445 910.812C465.872 910.984 466.234 911.237 466.531 911.57C466.828 911.898 467.055 912.299 467.211 912.773C467.367 913.242 467.445 913.771 467.445 914.359C467.445 914.885 467.367 915.378 467.211 915.836C467.06 916.294 466.831 916.698 466.523 917.047C466.216 917.396 465.828 917.669 465.359 917.867C464.896 918.06 464.346 918.156 463.711 918.156C463.237 918.156 462.781 918.089 462.344 917.953C461.911 917.812 461.523 917.607 461.18 917.336C460.836 917.06 460.56 916.721 460.352 916.32C460.143 915.914 460.023 915.448 459.992 914.922H461.836C461.883 915.292 461.984 915.607 462.141 915.867C462.302 916.122 462.516 916.318 462.781 916.453C463.047 916.589 463.354 916.656 463.703 916.656C464.021 916.656 464.294 916.602 464.523 916.492C464.753 916.378 464.943 916.216 465.094 916.008C465.25 915.794 465.365 915.544 465.438 915.258C465.516 914.971 465.555 914.654 465.555 914.305C465.555 913.971 465.51 913.667 465.422 913.391C465.339 913.115 465.211 912.875 465.039 912.672C464.872 912.469 464.661 912.312 464.406 912.203C464.151 912.089 463.857 912.031 463.523 912.031C463.076 912.031 462.732 912.096 462.492 912.227C462.258 912.357 462.039 912.518 461.836 912.711Z" fill="#FDFDFD"/>
<rect x="506" y="895" width="36" height="36" rx="18" fill="#AAABAF"/>
<path d="M525.547 906.555H525.781V908.094H525.648C524.977 908.094 524.396 908.198 523.906 908.406C523.422 908.615 523.023 908.901 522.711 909.266C522.398 909.63 522.164 910.057 522.008 910.547C521.857 911.031 521.781 911.547 521.781 912.094V913.883C521.781 914.336 521.831 914.737 521.93 915.086C522.029 915.43 522.167 915.719 522.344 915.953C522.526 916.182 522.734 916.357 522.969 916.477C523.203 916.596 523.456 916.656 523.727 916.656C524.008 916.656 524.263 916.599 524.492 916.484C524.721 916.365 524.917 916.201 525.078 915.992C525.24 915.784 525.362 915.536 525.445 915.25C525.529 914.964 525.57 914.651 525.57 914.312C525.57 913.99 525.529 913.688 525.445 913.406C525.367 913.12 525.25 912.87 525.094 912.656C524.938 912.438 524.742 912.268 524.508 912.148C524.279 912.023 524.013 911.961 523.711 911.961C523.336 911.961 522.995 912.049 522.688 912.227C522.385 912.404 522.141 912.635 521.953 912.922C521.771 913.203 521.672 913.503 521.656 913.82L520.938 913.586C520.979 913.102 521.086 912.667 521.258 912.281C521.435 911.896 521.667 911.568 521.953 911.297C522.24 911.026 522.57 910.82 522.945 910.68C523.326 910.534 523.742 910.461 524.195 910.461C524.747 910.461 525.227 910.565 525.633 910.773C526.039 910.982 526.375 911.266 526.641 911.625C526.911 911.979 527.112 912.385 527.242 912.844C527.378 913.297 527.445 913.771 527.445 914.266C527.445 914.812 527.362 915.323 527.195 915.797C527.029 916.266 526.784 916.677 526.461 917.031C526.143 917.385 525.755 917.661 525.297 917.859C524.844 918.057 524.328 918.156 523.75 918.156C523.141 918.156 522.596 918.039 522.117 917.805C521.643 917.57 521.24 917.247 520.906 916.836C520.578 916.424 520.328 915.951 520.156 915.414C519.984 914.878 519.898 914.31 519.898 913.711V912.93C519.898 912.065 520.008 911.25 520.227 910.484C520.445 909.714 520.781 909.034 521.234 908.445C521.693 907.857 522.279 907.396 522.992 907.062C523.706 906.724 524.557 906.555 525.547 906.555Z" fill="#FDFDFD"/>
<rect x="578" y="700" width="36" height="36" rx="18" fill="#AAABAF"/>
<path d="M599.484 721.5V723H591.859V721.711L595.562 717.672C595.969 717.214 596.289 716.818 596.523 716.484C596.758 716.151 596.922 715.852 597.016 715.586C597.115 715.315 597.164 715.052 597.164 714.797C597.164 714.438 597.096 714.122 596.961 713.852C596.831 713.576 596.638 713.359 596.383 713.203C596.128 713.042 595.818 712.961 595.453 712.961C595.031 712.961 594.677 713.052 594.391 713.234C594.104 713.417 593.888 713.669 593.742 713.992C593.596 714.31 593.523 714.674 593.523 715.086H591.641C591.641 714.424 591.792 713.82 592.094 713.273C592.396 712.721 592.833 712.284 593.406 711.961C593.979 711.633 594.669 711.469 595.477 711.469C596.237 711.469 596.883 711.596 597.414 711.852C597.945 712.107 598.349 712.469 598.625 712.938C598.906 713.406 599.047 713.961 599.047 714.602C599.047 714.956 598.99 715.307 598.875 715.656C598.76 716.005 598.596 716.354 598.383 716.703C598.174 717.047 597.927 717.393 597.641 717.742C597.354 718.086 597.039 718.435 596.695 718.789L594.234 721.5H599.484Z" fill="#FDFDFD"/>
<rect x="638" y="700" width="36" height="36" rx="18" fill="#AAABAF"/>
<path d="M654.07 716.461H655.195C655.633 716.461 655.995 716.385 656.281 716.234C656.573 716.083 656.789 715.875 656.93 715.609C657.07 715.344 657.141 715.039 657.141 714.695C657.141 714.336 657.076 714.029 656.945 713.773C656.82 713.513 656.628 713.312 656.367 713.172C656.112 713.031 655.786 712.961 655.391 712.961C655.057 712.961 654.755 713.029 654.484 713.164C654.219 713.294 654.008 713.482 653.852 713.727C653.695 713.966 653.617 714.253 653.617 714.586H651.727C651.727 713.982 651.885 713.445 652.203 712.977C652.521 712.508 652.953 712.141 653.5 711.875C654.052 711.604 654.672 711.469 655.359 711.469C656.094 711.469 656.734 711.591 657.281 711.836C657.833 712.076 658.263 712.435 658.57 712.914C658.878 713.393 659.031 713.987 659.031 714.695C659.031 715.018 658.956 715.346 658.805 715.68C658.654 716.013 658.43 716.318 658.133 716.594C657.836 716.865 657.466 717.086 657.023 717.258C656.581 717.424 656.068 717.508 655.484 717.508H654.07V716.461ZM654.07 717.93V716.898H655.484C656.151 716.898 656.719 716.977 657.188 717.133C657.661 717.289 658.047 717.505 658.344 717.781C658.641 718.052 658.857 718.362 658.992 718.711C659.133 719.06 659.203 719.43 659.203 719.82C659.203 720.352 659.107 720.826 658.914 721.242C658.727 721.654 658.458 722.003 658.109 722.289C657.76 722.576 657.352 722.792 656.883 722.938C656.419 723.083 655.914 723.156 655.367 723.156C654.878 723.156 654.409 723.089 653.961 722.953C653.513 722.818 653.112 722.617 652.758 722.352C652.404 722.081 652.122 721.745 651.914 721.344C651.711 720.938 651.609 720.469 651.609 719.938H653.492C653.492 720.276 653.57 720.576 653.727 720.836C653.888 721.091 654.112 721.292 654.398 721.438C654.69 721.583 655.023 721.656 655.398 721.656C655.794 721.656 656.135 721.586 656.422 721.445C656.708 721.305 656.927 721.096 657.078 720.82C657.234 720.544 657.312 720.211 657.312 719.82C657.312 719.378 657.227 719.018 657.055 718.742C656.883 718.466 656.638 718.263 656.32 718.133C656.003 717.997 655.628 717.93 655.195 717.93H654.07Z" fill="#FDFDFD"/>
<rect x="202" y="584" width="36" height="36" rx="18" fill="#AAABAF"/>
<path d="M223.414 595.625V596.656L218.867 607H216.883L221.422 597.125H215.531V595.625H223.414Z" fill="#FDFDFD"/>
<rect x="339" y="23.5" width="36" height="36" rx="18" fill="#AAABAF"/>
<path d="M360.695 42.4453V43.9453H352.492L352.43 42.8125L357.336 35.125H358.844L357.211 37.9219L354.391 42.4453H360.695ZM359.273 35.125V46.5H357.391V35.125H359.273Z" fill="#FDFDFD"/>
<rect x="67" y="17" width="36" height="36" rx="18" fill="#AAABAF"/>
<path d="M86 28.5859V40H84.1172V30.8203L81.3281 31.7656V30.2109L85.7734 28.5859H86Z" fill="#FDFDFD"/>
<rect x="67" y="72" width="36" height="36" rx="18" fill="#AAABAF"/>
<path d="M82.375 93.5156H82.5312C83.25 93.5156 83.849 93.4219 84.3281 93.2344C84.8125 93.0417 85.1979 92.776 85.4844 92.4375C85.7708 92.099 85.9766 91.7005 86.1016 91.2422C86.2266 90.7839 86.2891 90.2865 86.2891 89.75V87.7891C86.2891 87.3255 86.2396 86.9193 86.1406 86.5703C86.0469 86.2161 85.9115 85.9219 85.7344 85.6875C85.5625 85.4479 85.362 85.2682 85.1328 85.1484C84.9089 85.0286 84.6667 84.9688 84.4062 84.9688C84.1198 84.9688 83.862 85.0339 83.6328 85.1641C83.4089 85.2891 83.2188 85.4635 83.0625 85.6875C82.9115 85.9062 82.7943 86.1641 82.7109 86.4609C82.6328 86.7526 82.5938 87.0651 82.5938 87.3984C82.5938 87.7109 82.6302 88.013 82.7031 88.3047C82.7812 88.5911 82.8958 88.8464 83.0469 89.0703C83.1979 89.2943 83.388 89.4714 83.6172 89.6016C83.8464 89.7318 84.1146 89.7969 84.4219 89.7969C84.7135 89.7969 84.9818 89.7422 85.2266 89.6328C85.4714 89.5182 85.6849 89.3646 85.8672 89.1719C86.0495 88.9792 86.1927 88.763 86.2969 88.5234C86.401 88.2839 86.4583 88.0391 86.4688 87.7891L87.1875 88.0078C87.1875 88.4036 87.1042 88.7943 86.9375 89.1797C86.776 89.5599 86.5495 89.9089 86.2578 90.2266C85.9714 90.5391 85.6354 90.7891 85.25 90.9766C84.8698 91.1641 84.4557 91.2578 84.0078 91.2578C83.4661 91.2578 82.987 91.1562 82.5703 90.9531C82.1589 90.7448 81.8151 90.4635 81.5391 90.1094C81.2682 89.7552 81.0651 89.349 80.9297 88.8906C80.7943 88.4323 80.7266 87.9505 80.7266 87.4453C80.7266 86.8984 80.8099 86.3854 80.9766 85.9062C81.1432 85.4271 81.3854 85.0052 81.7031 84.6406C82.0208 84.2708 82.4062 83.9844 82.8594 83.7812C83.3177 83.5729 83.8359 83.4688 84.4141 83.4688C85.0286 83.4688 85.5677 83.5885 86.0312 83.8281C86.4948 84.0677 86.8854 84.3984 87.2031 84.8203C87.5208 85.2422 87.7604 85.7318 87.9219 86.2891C88.0833 86.8464 88.1641 87.4453 88.1641 88.0859V88.75C88.1641 89.4219 88.1042 90.0703 87.9844 90.6953C87.8646 91.3151 87.6693 91.8906 87.3984 92.4219C87.1328 92.9479 86.7812 93.4115 86.3438 93.8125C85.9115 94.2083 85.3802 94.5182 84.75 94.7422C84.125 94.9609 83.3906 95.0703 82.5469 95.0703H82.375V93.5156Z" fill="#FDFDFD"/>
<rect x="278" y="17.5" width="36" height="36" rx="18" fill="#AAABAF"/>
<path d="M294.07 33.9609H295.195C295.633 33.9609 295.995 33.8854 296.281 33.7344C296.573 33.5833 296.789 33.375 296.93 33.1094C297.07 32.8438 297.141 32.5391 297.141 32.1953C297.141 31.8359 297.076 31.5286 296.945 31.2734C296.82 31.013 296.628 30.8125 296.367 30.6719C296.112 30.5312 295.786 30.4609 295.391 30.4609C295.057 30.4609 294.755 30.5286 294.484 30.6641C294.219 30.7943 294.008 30.9818 293.852 31.2266C293.695 31.4661 293.617 31.7526 293.617 32.0859H291.727C291.727 31.4818 291.885 30.9453 292.203 30.4766C292.521 30.0078 292.953 29.6406 293.5 29.375C294.052 29.1042 294.672 28.9688 295.359 28.9688C296.094 28.9688 296.734 29.0911 297.281 29.3359C297.833 29.5755 298.263 29.9349 298.57 30.4141C298.878 30.8932 299.031 31.487 299.031 32.1953C299.031 32.5182 298.956 32.8464 298.805 33.1797C298.654 33.513 298.43 33.8177 298.133 34.0938C297.836 34.3646 297.466 34.5859 297.023 34.7578C296.581 34.9245 296.068 35.0078 295.484 35.0078H294.07V33.9609ZM294.07 35.4297V34.3984H295.484C296.151 34.3984 296.719 34.4766 297.188 34.6328C297.661 34.7891 298.047 35.0052 298.344 35.2812C298.641 35.5521 298.857 35.862 298.992 36.2109C299.133 36.5599 299.203 36.9297 299.203 37.3203C299.203 37.8516 299.107 38.3255 298.914 38.7422C298.727 39.1536 298.458 39.5026 298.109 39.7891C297.76 40.0755 297.352 40.2917 296.883 40.4375C296.419 40.5833 295.914 40.6562 295.367 40.6562C294.878 40.6562 294.409 40.5885 293.961 40.4531C293.513 40.3177 293.112 40.1172 292.758 39.8516C292.404 39.5807 292.122 39.2448 291.914 38.8438C291.711 38.4375 291.609 37.9688 291.609 37.4375H293.492C293.492 37.776 293.57 38.0755 293.727 38.3359C293.888 38.5911 294.112 38.7917 294.398 38.9375C294.69 39.0833 295.023 39.1562 295.398 39.1562C295.794 39.1562 296.135 39.0859 296.422 38.9453C296.708 38.8047 296.927 38.5964 297.078 38.3203C297.234 38.0443 297.312 37.7109 297.312 37.3203C297.312 36.8776 297.227 36.5182 297.055 36.2422C296.883 35.9661 296.638 35.763 296.32 35.6328C296.003 35.4974 295.628 35.4297 295.195 35.4297H294.07Z" fill="#FDFDFD"/>
<rect x="190" y="334" width="36" height="36" rx="18" fill="#AAABAF"/>
<path d="M209.547 345.555H209.781V347.094H209.648C208.977 347.094 208.396 347.198 207.906 347.406C207.422 347.615 207.023 347.901 206.711 348.266C206.398 348.63 206.164 349.057 206.008 349.547C205.857 350.031 205.781 350.547 205.781 351.094V352.883C205.781 353.336 205.831 353.737 205.93 354.086C206.029 354.43 206.167 354.719 206.344 354.953C206.526 355.182 206.734 355.357 206.969 355.477C207.203 355.596 207.456 355.656 207.727 355.656C208.008 355.656 208.263 355.599 208.492 355.484C208.721 355.365 208.917 355.201 209.078 354.992C209.24 354.784 209.362 354.536 209.445 354.25C209.529 353.964 209.57 353.651 209.57 353.312C209.57 352.99 209.529 352.688 209.445 352.406C209.367 352.12 209.25 351.87 209.094 351.656C208.938 351.438 208.742 351.268 208.508 351.148C208.279 351.023 208.013 350.961 207.711 350.961C207.336 350.961 206.995 351.049 206.688 351.227C206.385 351.404 206.141 351.635 205.953 351.922C205.771 352.203 205.672 352.503 205.656 352.82L204.938 352.586C204.979 352.102 205.086 351.667 205.258 351.281C205.435 350.896 205.667 350.568 205.953 350.297C206.24 350.026 206.57 349.82 206.945 349.68C207.326 349.534 207.742 349.461 208.195 349.461C208.747 349.461 209.227 349.565 209.633 349.773C210.039 349.982 210.375 350.266 210.641 350.625C210.911 350.979 211.112 351.385 211.242 351.844C211.378 352.297 211.445 352.771 211.445 353.266C211.445 353.812 211.362 354.323 211.195 354.797C211.029 355.266 210.784 355.677 210.461 356.031C210.143 356.385 209.755 356.661 209.297 356.859C208.844 357.057 208.328 357.156 207.75 357.156C207.141 357.156 206.596 357.039 206.117 356.805C205.643 356.57 205.24 356.247 204.906 355.836C204.578 355.424 204.328 354.951 204.156 354.414C203.984 353.878 203.898 353.31 203.898 352.711V351.93C203.898 351.065 204.008 350.25 204.227 349.484C204.445 348.714 204.781 348.034 205.234 347.445C205.693 346.857 206.279 346.396 206.992 346.062C207.706 345.724 208.557 345.555 209.547 345.555Z" fill="#FDFDFD"/>
<rect x="142" y="912" width="36" height="36" rx="18" fill="#AAABAF"/>
<path d="M158.07 928.461H159.195C159.633 928.461 159.995 928.385 160.281 928.234C160.573 928.083 160.789 927.875 160.93 927.609C161.07 927.344 161.141 927.039 161.141 926.695C161.141 926.336 161.076 926.029 160.945 925.773C160.82 925.513 160.628 925.312 160.367 925.172C160.112 925.031 159.786 924.961 159.391 924.961C159.057 924.961 158.755 925.029 158.484 925.164C158.219 925.294 158.008 925.482 157.852 925.727C157.695 925.966 157.617 926.253 157.617 926.586H155.727C155.727 925.982 155.885 925.445 156.203 924.977C156.521 924.508 156.953 924.141 157.5 923.875C158.052 923.604 158.672 923.469 159.359 923.469C160.094 923.469 160.734 923.591 161.281 923.836C161.833 924.076 162.263 924.435 162.57 924.914C162.878 925.393 163.031 925.987 163.031 926.695C163.031 927.018 162.956 927.346 162.805 927.68C162.654 928.013 162.43 928.318 162.133 928.594C161.836 928.865 161.466 929.086 161.023 929.258C160.581 929.424 160.068 929.508 159.484 929.508H158.07V928.461ZM158.07 929.93V928.898H159.484C160.151 928.898 160.719 928.977 161.188 929.133C161.661 929.289 162.047 929.505 162.344 929.781C162.641 930.052 162.857 930.362 162.992 930.711C163.133 931.06 163.203 931.43 163.203 931.82C163.203 932.352 163.107 932.826 162.914 933.242C162.727 933.654 162.458 934.003 162.109 934.289C161.76 934.576 161.352 934.792 160.883 934.938C160.419 935.083 159.914 935.156 159.367 935.156C158.878 935.156 158.409 935.089 157.961 934.953C157.513 934.818 157.112 934.617 156.758 934.352C156.404 934.081 156.122 933.745 155.914 933.344C155.711 932.938 155.609 932.469 155.609 931.938H157.492C157.492 932.276 157.57 932.576 157.727 932.836C157.888 933.091 158.112 933.292 158.398 933.438C158.69 933.583 159.023 933.656 159.398 933.656C159.794 933.656 160.135 933.586 160.422 933.445C160.708 933.305 160.927 933.096 161.078 932.82C161.234 932.544 161.312 932.211 161.312 931.82C161.312 931.378 161.227 931.018 161.055 930.742C160.883 930.466 160.638 930.263 160.32 930.133C160.003 929.997 159.628 929.93 159.195 929.93H158.07Z" fill="#FDFDFD"/>
<rect x="200" y="773.5" width="36" height="36" rx="18" fill="#AAABAF"/>
<path d="M219.547 785.055H219.781V786.594H219.648C218.977 786.594 218.396 786.698 217.906 786.906C217.422 787.115 217.023 787.401 216.711 787.766C216.398 788.13 216.164 788.557 216.008 789.047C215.857 789.531 215.781 790.047 215.781 790.594V792.383C215.781 792.836 215.831 793.237 215.93 793.586C216.029 793.93 216.167 794.219 216.344 794.453C216.526 794.682 216.734 794.857 216.969 794.977C217.203 795.096 217.456 795.156 217.727 795.156C218.008 795.156 218.263 795.099 218.492 794.984C218.721 794.865 218.917 794.701 219.078 794.492C219.24 794.284 219.362 794.036 219.445 793.75C219.529 793.464 219.57 793.151 219.57 792.812C219.57 792.49 219.529 792.188 219.445 791.906C219.367 791.62 219.25 791.37 219.094 791.156C218.938 790.938 218.742 790.768 218.508 790.648C218.279 790.523 218.013 790.461 217.711 790.461C217.336 790.461 216.995 790.549 216.688 790.727C216.385 790.904 216.141 791.135 215.953 791.422C215.771 791.703 215.672 792.003 215.656 792.32L214.938 792.086C214.979 791.602 215.086 791.167 215.258 790.781C215.435 790.396 215.667 790.068 215.953 789.797C216.24 789.526 216.57 789.32 216.945 789.18C217.326 789.034 217.742 788.961 218.195 788.961C218.747 788.961 219.227 789.065 219.633 789.273C220.039 789.482 220.375 789.766 220.641 790.125C220.911 790.479 221.112 790.885 221.242 791.344C221.378 791.797 221.445 792.271 221.445 792.766C221.445 793.312 221.362 793.823 221.195 794.297C221.029 794.766 220.784 795.177 220.461 795.531C220.143 795.885 219.755 796.161 219.297 796.359C218.844 796.557 218.328 796.656 217.75 796.656C217.141 796.656 216.596 796.539 216.117 796.305C215.643 796.07 215.24 795.747 214.906 795.336C214.578 794.924 214.328 794.451 214.156 793.914C213.984 793.378 213.898 792.81 213.898 792.211V791.43C213.898 790.565 214.008 789.75 214.227 788.984C214.445 788.214 214.781 787.534 215.234 786.945C215.693 786.357 216.279 785.896 216.992 785.562C217.706 785.224 218.557 785.055 219.547 785.055Z" fill="#FDFDFD"/>
<rect x="339" y="125.5" width="36" height="36" rx="18" fill="#AAABAF"/>
<path d="M355.07 141.961H356.195C356.633 141.961 356.995 141.885 357.281 141.734C357.573 141.583 357.789 141.375 357.93 141.109C358.07 140.844 358.141 140.539 358.141 140.195C358.141 139.836 358.076 139.529 357.945 139.273C357.82 139.013 357.628 138.812 357.367 138.672C357.112 138.531 356.786 138.461 356.391 138.461C356.057 138.461 355.755 138.529 355.484 138.664C355.219 138.794 355.008 138.982 354.852 139.227C354.695 139.466 354.617 139.753 354.617 140.086H352.727C352.727 139.482 352.885 138.945 353.203 138.477C353.521 138.008 353.953 137.641 354.5 137.375C355.052 137.104 355.672 136.969 356.359 136.969C357.094 136.969 357.734 137.091 358.281 137.336C358.833 137.576 359.263 137.935 359.57 138.414C359.878 138.893 360.031 139.487 360.031 140.195C360.031 140.518 359.956 140.846 359.805 141.18C359.654 141.513 359.43 141.818 359.133 142.094C358.836 142.365 358.466 142.586 358.023 142.758C357.581 142.924 357.068 143.008 356.484 143.008H355.07V141.961ZM355.07 143.43V142.398H356.484C357.151 142.398 357.719 142.477 358.188 142.633C358.661 142.789 359.047 143.005 359.344 143.281C359.641 143.552 359.857 143.862 359.992 144.211C360.133 144.56 360.203 144.93 360.203 145.32C360.203 145.852 360.107 146.326 359.914 146.742C359.727 147.154 359.458 147.503 359.109 147.789C358.76 148.076 358.352 148.292 357.883 148.438C357.419 148.583 356.914 148.656 356.367 148.656C355.878 148.656 355.409 148.589 354.961 148.453C354.513 148.318 354.112 148.117 353.758 147.852C353.404 147.581 353.122 147.245 352.914 146.844C352.711 146.438 352.609 145.969 352.609 145.438H354.492C354.492 145.776 354.57 146.076 354.727 146.336C354.888 146.591 355.112 146.792 355.398 146.938C355.69 147.083 356.023 147.156 356.398 147.156C356.794 147.156 357.135 147.086 357.422 146.945C357.708 146.805 357.927 146.596 358.078 146.32C358.234 146.044 358.312 145.711 358.312 145.32C358.312 144.878 358.227 144.518 358.055 144.242C357.883 143.966 357.638 143.763 357.32 143.633C357.003 143.497 356.628 143.43 356.195 143.43H355.07Z" fill="#FDFDFD"/>
<rect x="19" y="797" width="36" height="36" rx="18" fill="#AAABAF"/>
<path d="M34.8359 814.711L33.3359 814.344L33.9531 808.625H40.0859V810.219H35.5156L35.2031 813.008C35.3802 812.904 35.625 812.802 35.9375 812.703C36.25 812.599 36.6068 812.547 37.0078 812.547C37.5443 812.547 38.0234 812.635 38.4453 812.812C38.8724 812.984 39.2344 813.237 39.5312 813.57C39.8281 813.898 40.0547 814.299 40.2109 814.773C40.3672 815.242 40.4453 815.771 40.4453 816.359C40.4453 816.885 40.3672 817.378 40.2109 817.836C40.0599 818.294 39.8307 818.698 39.5234 819.047C39.2161 819.396 38.8281 819.669 38.3594 819.867C37.8958 820.06 37.3464 820.156 36.7109 820.156C36.237 820.156 35.7812 820.089 35.3438 819.953C34.9115 819.812 34.5234 819.607 34.1797 819.336C33.8359 819.06 33.5599 818.721 33.3516 818.32C33.1432 817.914 33.0234 817.448 32.9922 816.922H34.8359C34.8828 817.292 34.9844 817.607 35.1406 817.867C35.3021 818.122 35.5156 818.318 35.7812 818.453C36.0469 818.589 36.3542 818.656 36.7031 818.656C37.0208 818.656 37.2943 818.602 37.5234 818.492C37.7526 818.378 37.9427 818.216 38.0938 818.008C38.25 817.794 38.3646 817.544 38.4375 817.258C38.5156 816.971 38.5547 816.654 38.5547 816.305C38.5547 815.971 38.5104 815.667 38.4219 815.391C38.3385 815.115 38.2109 814.875 38.0391 814.672C37.8724 814.469 37.6615 814.312 37.4062 814.203C37.151 814.089 36.8568 814.031 36.5234 814.031C36.0755 814.031 35.7318 814.096 35.4922 814.227C35.2578 814.357 35.0391 814.518 34.8359 814.711Z" fill="#FDFDFD"/>
<rect x="19" y="678" width="36" height="36" rx="18" fill="#AAABAF"/>
<path d="M38.5469 689.555H38.7812V691.094H38.6484C37.9766 691.094 37.3958 691.198 36.9062 691.406C36.4219 691.615 36.0234 691.901 35.7109 692.266C35.3984 692.63 35.1641 693.057 35.0078 693.547C34.8568 694.031 34.7812 694.547 34.7812 695.094V696.883C34.7812 697.336 34.8307 697.737 34.9297 698.086C35.0286 698.43 35.1667 698.719 35.3438 698.953C35.526 699.182 35.7344 699.357 35.9688 699.477C36.2031 699.596 36.4557 699.656 36.7266 699.656C37.0078 699.656 37.263 699.599 37.4922 699.484C37.7214 699.365 37.9167 699.201 38.0781 698.992C38.2396 698.784 38.362 698.536 38.4453 698.25C38.5286 697.964 38.5703 697.651 38.5703 697.312C38.5703 696.99 38.5286 696.688 38.4453 696.406C38.3672 696.12 38.25 695.87 38.0938 695.656C37.9375 695.438 37.7422 695.268 37.5078 695.148C37.2786 695.023 37.013 694.961 36.7109 694.961C36.3359 694.961 35.9948 695.049 35.6875 695.227C35.3854 695.404 35.1406 695.635 34.9531 695.922C34.7708 696.203 34.6719 696.503 34.6562 696.82L33.9375 696.586C33.9792 696.102 34.0859 695.667 34.2578 695.281C34.4349 694.896 34.6667 694.568 34.9531 694.297C35.2396 694.026 35.5703 693.82 35.9453 693.68C36.3255 693.534 36.7422 693.461 37.1953 693.461C37.7474 693.461 38.2266 693.565 38.6328 693.773C39.0391 693.982 39.375 694.266 39.6406 694.625C39.9115 694.979 40.112 695.385 40.2422 695.844C40.3776 696.297 40.4453 696.771 40.4453 697.266C40.4453 697.812 40.362 698.323 40.1953 698.797C40.0286 699.266 39.7839 699.677 39.4609 700.031C39.1432 700.385 38.7552 700.661 38.2969 700.859C37.8438 701.057 37.3281 701.156 36.75 701.156C36.1406 701.156 35.5964 701.039 35.1172 700.805C34.6432 700.57 34.2396 700.247 33.9062 699.836C33.5781 699.424 33.3281 698.951 33.1562 698.414C32.9844 697.878 32.8984 697.31 32.8984 696.711V695.93C32.8984 695.065 33.0078 694.25 33.2266 693.484C33.4453 692.714 33.7812 692.034 34.2344 691.445C34.6927 690.857 35.2786 690.396 35.9922 690.062C36.7057 689.724 37.5573 689.555 38.5469 689.555Z" fill="#FDFDFD"/>
<rect x="19" y="912" width="36" height="36" rx="18" fill="#AAABAF"/>
<path d="M40.6953 930.945V932.445H32.4922L32.4297 931.312L37.3359 923.625H38.8438L37.2109 926.422L34.3906 930.945H40.6953ZM39.2734 923.625V935H37.3906V923.625H39.2734Z" fill="#FDFDFD"/>
<rect x="339" y="229.5" width="36" height="36" rx="18" fill="#AAABAF"/>
<path d="M360.484 251V252.5H352.859V251.211L356.562 247.172C356.969 246.714 357.289 246.318 357.523 245.984C357.758 245.651 357.922 245.352 358.016 245.086C358.115 244.815 358.164 244.552 358.164 244.297C358.164 243.938 358.096 243.622 357.961 243.352C357.831 243.076 357.638 242.859 357.383 242.703C357.128 242.542 356.818 242.461 356.453 242.461C356.031 242.461 355.677 242.552 355.391 242.734C355.104 242.917 354.888 243.169 354.742 243.492C354.596 243.81 354.523 244.174 354.523 244.586H352.641C352.641 243.924 352.792 243.32 353.094 242.773C353.396 242.221 353.833 241.784 354.406 241.461C354.979 241.133 355.669 240.969 356.477 240.969C357.237 240.969 357.883 241.096 358.414 241.352C358.945 241.607 359.349 241.969 359.625 242.438C359.906 242.906 360.047 243.461 360.047 244.102C360.047 244.456 359.99 244.807 359.875 245.156C359.76 245.505 359.596 245.854 359.383 246.203C359.174 246.547 358.927 246.893 358.641 247.242C358.354 247.586 358.039 247.935 357.695 248.289L355.234 251H360.484Z" fill="#FDFDFD"/>
<rect x="339" y="333.5" width="36" height="36" rx="18" fill="#AAABAF"/>
<path d="M358 345.086V356.5H356.117V347.32L353.328 348.266V346.711L357.773 345.086H358Z" fill="#FDFDFD"/>
<rect x="482" y="46" width="36" height="36" rx="18" fill="#AAABAF"/>
<path d="M503.414 57.625V58.6562L498.867 69H496.883L501.422 59.125H495.531V57.625H503.414Z" fill="#FDFDFD"/>
<rect x="528" y="46" width="36" height="36" rx="18" fill="#AAABAF"/>
<path d="M547.547 57.5547H547.781V59.0938H547.648C546.977 59.0938 546.396 59.1979 545.906 59.4062C545.422 59.6146 545.023 59.901 544.711 60.2656C544.398 60.6302 544.164 61.0573 544.008 61.5469C543.857 62.0312 543.781 62.5469 543.781 63.0938V64.8828C543.781 65.3359 543.831 65.737 543.93 66.0859C544.029 66.4297 544.167 66.7188 544.344 66.9531C544.526 67.1823 544.734 67.3568 544.969 67.4766C545.203 67.5964 545.456 67.6562 545.727 67.6562C546.008 67.6562 546.263 67.599 546.492 67.4844C546.721 67.3646 546.917 67.2005 547.078 66.9922C547.24 66.7839 547.362 66.5365 547.445 66.25C547.529 65.9635 547.57 65.651 547.57 65.3125C547.57 64.9896 547.529 64.6875 547.445 64.4062C547.367 64.1198 547.25 63.8698 547.094 63.6562C546.938 63.4375 546.742 63.2682 546.508 63.1484C546.279 63.0234 546.013 62.9609 545.711 62.9609C545.336 62.9609 544.995 63.0495 544.688 63.2266C544.385 63.4036 544.141 63.6354 543.953 63.9219C543.771 64.2031 543.672 64.5026 543.656 64.8203L542.938 64.5859C542.979 64.1016 543.086 63.6667 543.258 63.2812C543.435 62.8958 543.667 62.5677 543.953 62.2969C544.24 62.026 544.57 61.8203 544.945 61.6797C545.326 61.5339 545.742 61.4609 546.195 61.4609C546.747 61.4609 547.227 61.5651 547.633 61.7734C548.039 61.9818 548.375 62.2656 548.641 62.625C548.911 62.9792 549.112 63.3854 549.242 63.8438C549.378 64.2969 549.445 64.7708 549.445 65.2656C549.445 65.8125 549.362 66.3229 549.195 66.7969C549.029 67.2656 548.784 67.6771 548.461 68.0312C548.143 68.3854 547.755 68.6615 547.297 68.8594C546.844 69.0573 546.328 69.1562 545.75 69.1562C545.141 69.1562 544.596 69.0391 544.117 68.8047C543.643 68.5703 543.24 68.2474 542.906 67.8359C542.578 67.4245 542.328 66.9505 542.156 66.4141C541.984 65.8776 541.898 65.3099 541.898 64.7109V63.9297C541.898 63.0651 542.008 62.25 542.227 61.4844C542.445 60.7135 542.781 60.0339 543.234 59.4453C543.693 58.8568 544.279 58.3958 544.992 58.0625C545.706 57.724 546.557 57.5547 547.547 57.5547Z" fill="#FDFDFD"/>
<rect x="574" y="46" width="36" height="36" rx="18" fill="#AAABAF"/>
<path d="M595.297 65.8984C595.297 66.6068 595.133 67.2031 594.805 67.6875C594.477 68.1719 594.029 68.5391 593.461 68.7891C592.898 69.0339 592.263 69.1562 591.555 69.1562C590.846 69.1562 590.208 69.0339 589.641 68.7891C589.073 68.5391 588.625 68.1719 588.297 67.6875C587.969 67.2031 587.805 66.6068 587.805 65.8984C587.805 65.4297 587.896 65.0052 588.078 64.625C588.26 64.2396 588.518 63.9089 588.852 63.6328C589.19 63.3516 589.586 63.1354 590.039 62.9844C590.497 62.8333 590.997 62.7578 591.539 62.7578C592.258 62.7578 592.901 62.8906 593.469 63.1562C594.036 63.4219 594.482 63.7891 594.805 64.2578C595.133 64.7266 595.297 65.2734 595.297 65.8984ZM593.406 65.8047C593.406 65.4245 593.328 65.0911 593.172 64.8047C593.016 64.5182 592.797 64.2969 592.516 64.1406C592.234 63.9844 591.909 63.9062 591.539 63.9062C591.164 63.9062 590.839 63.9844 590.562 64.1406C590.286 64.2969 590.07 64.5182 589.914 64.8047C589.763 65.0911 589.688 65.4245 589.688 65.8047C589.688 66.1901 589.763 66.5234 589.914 66.8047C590.065 67.0807 590.281 67.2917 590.562 67.4375C590.844 67.5833 591.174 67.6562 591.555 67.6562C591.935 67.6562 592.263 67.5833 592.539 67.4375C592.815 67.2917 593.029 67.0807 593.18 66.8047C593.331 66.5234 593.406 66.1901 593.406 65.8047ZM595.039 60.6172C595.039 61.1849 594.888 61.6901 594.586 62.1328C594.289 62.5755 593.878 62.9245 593.352 63.1797C592.826 63.4297 592.227 63.5547 591.555 63.5547C590.878 63.5547 590.273 63.4297 589.742 63.1797C589.216 62.9245 588.802 62.5755 588.5 62.1328C588.203 61.6901 588.055 61.1849 588.055 60.6172C588.055 59.9401 588.203 59.3698 588.5 58.9062C588.802 58.4375 589.216 58.0807 589.742 57.8359C590.268 57.5911 590.87 57.4688 591.547 57.4688C592.224 57.4688 592.826 57.5911 593.352 57.8359C593.878 58.0807 594.289 58.4375 594.586 58.9062C594.888 59.3698 595.039 59.9401 595.039 60.6172ZM593.156 60.6797C593.156 60.3411 593.089 60.0443 592.953 59.7891C592.823 59.5286 592.638 59.3255 592.398 59.1797C592.159 59.0339 591.875 58.9609 591.547 58.9609C591.219 58.9609 590.935 59.0312 590.695 59.1719C590.456 59.3125 590.271 59.5104 590.141 59.7656C590.01 60.0208 589.945 60.3255 589.945 60.6797C589.945 61.0286 590.01 61.3333 590.141 61.5938C590.271 61.849 590.456 62.0495 590.695 62.1953C590.94 62.3411 591.227 62.4141 591.555 62.4141C591.883 62.4141 592.167 62.3411 592.406 62.1953C592.646 62.0495 592.831 61.849 592.961 61.5938C593.091 61.3333 593.156 61.0286 593.156 60.6797Z" fill="#FDFDFD"/>
<path d="M405.662 183.435H402.474C402.384 182.912 402.216 182.449 401.972 182.045C401.727 181.636 401.423 181.29 401.06 181.006C400.696 180.722 400.281 180.509 399.815 180.366C399.355 180.219 398.858 180.145 398.324 180.145C397.375 180.145 396.534 180.384 395.801 180.861C395.068 181.332 394.494 182.026 394.08 182.94C393.665 183.849 393.457 184.96 393.457 186.273C393.457 187.608 393.665 188.733 394.08 189.648C394.5 190.557 395.074 191.244 395.801 191.71C396.534 192.17 397.372 192.401 398.315 192.401C398.838 192.401 399.327 192.332 399.781 192.196C400.241 192.054 400.653 191.847 401.017 191.574C401.386 191.301 401.696 190.966 401.946 190.568C402.202 190.17 402.378 189.716 402.474 189.205L405.662 189.222C405.543 190.051 405.284 190.83 404.886 191.557C404.494 192.284 403.98 192.926 403.344 193.483C402.707 194.034 401.963 194.466 401.111 194.778C400.259 195.085 399.313 195.239 398.273 195.239C396.739 195.239 395.369 194.884 394.165 194.173C392.96 193.463 392.011 192.438 391.318 191.097C390.625 189.756 390.278 188.148 390.278 186.273C390.278 184.392 390.628 182.784 391.327 181.449C392.026 180.108 392.977 179.082 394.182 178.372C395.386 177.662 396.75 177.307 398.273 177.307C399.244 177.307 400.148 177.443 400.983 177.716C401.818 177.989 402.563 178.389 403.216 178.918C403.869 179.44 404.406 180.082 404.827 180.844C405.253 181.599 405.531 182.463 405.662 183.435ZM412.188 195.264C411.359 195.264 410.612 195.116 409.947 194.821C409.288 194.52 408.765 194.077 408.379 193.491C407.998 192.906 407.808 192.185 407.808 191.327C407.808 190.588 407.944 189.977 408.217 189.494C408.489 189.011 408.862 188.625 409.333 188.335C409.805 188.045 410.336 187.827 410.927 187.679C411.523 187.526 412.14 187.415 412.776 187.347C413.543 187.267 414.165 187.196 414.643 187.134C415.12 187.065 415.467 186.963 415.683 186.827C415.904 186.685 416.015 186.466 416.015 186.17V186.119C416.015 185.477 415.825 184.98 415.444 184.628C415.063 184.276 414.515 184.099 413.799 184.099C413.043 184.099 412.444 184.264 412.001 184.594C411.563 184.923 411.268 185.312 411.114 185.761L408.234 185.352C408.461 184.557 408.836 183.892 409.359 183.358C409.881 182.818 410.521 182.415 411.276 182.148C412.032 181.875 412.867 181.739 413.782 181.739C414.413 181.739 415.04 181.812 415.665 181.96C416.29 182.108 416.862 182.352 417.379 182.693C417.896 183.028 418.31 183.486 418.623 184.065C418.941 184.645 419.1 185.369 419.1 186.239V195H416.134V193.202H416.032C415.844 193.565 415.58 193.906 415.239 194.224C414.904 194.537 414.481 194.79 413.969 194.983C413.464 195.17 412.87 195.264 412.188 195.264ZM412.989 192.997C413.609 192.997 414.146 192.875 414.6 192.631C415.055 192.381 415.404 192.051 415.648 191.642C415.898 191.233 416.023 190.787 416.023 190.304V188.761C415.927 188.841 415.762 188.915 415.529 188.983C415.302 189.051 415.046 189.111 414.762 189.162C414.478 189.213 414.197 189.259 413.918 189.298C413.64 189.338 413.398 189.372 413.194 189.401C412.734 189.463 412.322 189.565 411.958 189.707C411.594 189.849 411.308 190.048 411.097 190.304C410.887 190.554 410.782 190.878 410.782 191.276C410.782 191.844 410.989 192.273 411.404 192.562C411.819 192.852 412.347 192.997 412.989 192.997ZM432.549 185.369L429.737 185.676C429.657 185.392 429.518 185.125 429.319 184.875C429.126 184.625 428.864 184.423 428.535 184.27C428.205 184.116 427.802 184.04 427.325 184.04C426.683 184.04 426.143 184.179 425.705 184.457C425.273 184.736 425.06 185.097 425.066 185.54C425.06 185.92 425.2 186.23 425.484 186.469C425.773 186.707 426.251 186.903 426.915 187.057L429.148 187.534C430.387 187.801 431.308 188.224 431.91 188.804C432.518 189.384 432.825 190.142 432.83 191.08C432.825 191.903 432.583 192.631 432.106 193.261C431.634 193.886 430.978 194.375 430.137 194.727C429.296 195.08 428.33 195.256 427.239 195.256C425.637 195.256 424.347 194.92 423.37 194.25C422.393 193.574 421.81 192.634 421.623 191.429L424.631 191.139C424.768 191.73 425.058 192.176 425.501 192.477C425.944 192.778 426.521 192.929 427.231 192.929C427.964 192.929 428.552 192.778 428.995 192.477C429.444 192.176 429.668 191.804 429.668 191.361C429.668 190.986 429.523 190.676 429.234 190.432C428.95 190.187 428.506 190 427.904 189.869L425.671 189.401C424.415 189.139 423.487 188.699 422.884 188.08C422.282 187.455 421.984 186.665 421.989 185.71C421.984 184.903 422.202 184.205 422.646 183.614C423.094 183.017 423.717 182.557 424.512 182.233C425.313 181.903 426.237 181.739 427.282 181.739C428.816 181.739 430.023 182.065 430.904 182.719C431.79 183.372 432.339 184.256 432.549 185.369ZM445.721 185.369L442.908 185.676C442.829 185.392 442.69 185.125 442.491 184.875C442.298 184.625 442.036 184.423 441.707 184.27C441.377 184.116 440.974 184.04 440.496 184.04C439.854 184.04 439.315 184.179 438.877 184.457C438.445 184.736 438.232 185.097 438.238 185.54C438.232 185.92 438.371 186.23 438.656 186.469C438.945 186.707 439.423 186.903 440.087 187.057L442.32 187.534C443.559 187.801 444.479 188.224 445.082 188.804C445.69 189.384 445.996 190.142 446.002 191.08C445.996 191.903 445.755 192.631 445.278 193.261C444.806 193.886 444.15 194.375 443.309 194.727C442.468 195.08 441.502 195.256 440.411 195.256C438.809 195.256 437.519 194.92 436.542 194.25C435.565 193.574 434.982 192.634 434.795 191.429L437.803 191.139C437.94 191.73 438.229 192.176 438.673 192.477C439.116 192.778 439.692 192.929 440.403 192.929C441.136 192.929 441.724 192.778 442.167 192.477C442.616 192.176 442.84 191.804 442.84 191.361C442.84 190.986 442.695 190.676 442.406 190.432C442.121 190.187 441.678 190 441.076 189.869L438.843 189.401C437.587 189.139 436.658 188.699 436.056 188.08C435.454 187.455 435.156 186.665 435.161 185.71C435.156 184.903 435.374 184.205 435.817 183.614C436.266 183.017 436.888 182.557 437.684 182.233C438.485 181.903 439.408 181.739 440.454 181.739C441.988 181.739 443.195 182.065 444.076 182.719C444.962 183.372 445.511 184.256 445.721 185.369ZM448.546 195V181.909H451.631V195H448.546ZM450.097 180.051C449.609 180.051 449.188 179.889 448.836 179.565C448.484 179.236 448.308 178.841 448.308 178.381C448.308 177.915 448.484 177.52 448.836 177.196C449.188 176.866 449.609 176.702 450.097 176.702C450.592 176.702 451.012 176.866 451.359 177.196C451.711 177.52 451.887 177.915 451.887 178.381C451.887 178.841 451.711 179.236 451.359 179.565C451.012 179.889 450.592 180.051 450.097 180.051ZM460.514 195.256C459.236 195.256 458.128 194.974 457.19 194.412C456.253 193.849 455.526 193.062 455.009 192.051C454.497 191.04 454.241 189.858 454.241 188.506C454.241 187.153 454.497 185.969 455.009 184.952C455.526 183.935 456.253 183.145 457.19 182.582C458.128 182.02 459.236 181.739 460.514 181.739C461.793 181.739 462.901 182.02 463.838 182.582C464.776 183.145 465.5 183.935 466.011 184.952C466.528 185.969 466.787 187.153 466.787 188.506C466.787 189.858 466.528 191.04 466.011 192.051C465.5 193.062 464.776 193.849 463.838 194.412C462.901 194.974 461.793 195.256 460.514 195.256ZM460.531 192.784C461.224 192.784 461.804 192.594 462.27 192.213C462.736 191.827 463.082 191.31 463.31 190.662C463.543 190.014 463.659 189.293 463.659 188.497C463.659 187.696 463.543 186.972 463.31 186.324C463.082 185.67 462.736 185.151 462.27 184.764C461.804 184.378 461.224 184.185 460.531 184.185C459.821 184.185 459.23 184.378 458.759 184.764C458.293 185.151 457.943 185.67 457.71 186.324C457.483 186.972 457.369 187.696 457.369 188.497C457.369 189.293 457.483 190.014 457.71 190.662C457.943 191.31 458.293 191.827 458.759 192.213C459.23 192.594 459.821 192.784 460.531 192.784ZM469.406 199.909V181.909H472.44V184.074H472.619C472.778 183.756 473.002 183.418 473.292 183.06C473.582 182.696 473.974 182.386 474.468 182.131C474.962 181.869 475.593 181.739 476.36 181.739C477.371 181.739 478.283 181.997 479.096 182.514C479.914 183.026 480.562 183.784 481.039 184.79C481.522 185.79 481.763 187.017 481.763 188.472C481.763 189.909 481.528 191.131 481.056 192.136C480.585 193.142 479.942 193.909 479.13 194.438C478.317 194.966 477.397 195.23 476.369 195.23C475.619 195.23 474.996 195.105 474.502 194.855C474.008 194.605 473.61 194.304 473.309 193.952C473.013 193.594 472.783 193.256 472.619 192.938H472.491V199.909H469.406ZM472.431 188.455C472.431 189.301 472.55 190.043 472.789 190.679C473.033 191.315 473.383 191.812 473.837 192.17C474.298 192.523 474.854 192.699 475.508 192.699C476.19 192.699 476.761 192.517 477.221 192.153C477.681 191.784 478.028 191.281 478.261 190.645C478.499 190.003 478.619 189.273 478.619 188.455C478.619 187.642 478.502 186.92 478.269 186.29C478.036 185.659 477.69 185.165 477.229 184.807C476.769 184.449 476.195 184.27 475.508 184.27C474.849 184.27 474.289 184.443 473.829 184.79C473.369 185.136 473.019 185.622 472.781 186.247C472.548 186.872 472.431 187.608 472.431 188.455ZM490.201 195.256C488.888 195.256 487.755 194.983 486.8 194.438C485.852 193.886 485.121 193.108 484.61 192.102C484.099 191.091 483.843 189.901 483.843 188.531C483.843 187.185 484.099 186.003 484.61 184.986C485.127 183.963 485.849 183.168 486.775 182.599C487.701 182.026 488.789 181.739 490.039 181.739C490.846 181.739 491.607 181.869 492.323 182.131C493.045 182.386 493.681 182.784 494.232 183.324C494.789 183.864 495.227 184.551 495.545 185.386C495.863 186.216 496.022 187.205 496.022 188.352V189.298H485.292V187.219H493.065C493.059 186.628 492.931 186.102 492.681 185.642C492.431 185.176 492.082 184.81 491.633 184.543C491.19 184.276 490.673 184.142 490.082 184.142C489.451 184.142 488.897 184.295 488.42 184.602C487.942 184.903 487.57 185.301 487.303 185.795C487.042 186.284 486.908 186.821 486.903 187.406V189.222C486.903 189.983 487.042 190.636 487.32 191.182C487.599 191.722 487.988 192.136 488.488 192.426C488.988 192.71 489.573 192.852 490.244 192.852C490.692 192.852 491.099 192.79 491.462 192.665C491.826 192.534 492.141 192.344 492.408 192.094C492.675 191.844 492.877 191.534 493.013 191.165L495.894 191.489C495.712 192.25 495.366 192.915 494.854 193.483C494.349 194.045 493.701 194.483 492.911 194.795C492.121 195.102 491.218 195.256 490.201 195.256ZM498.632 195V181.909H501.717V195H498.632ZM500.183 180.051C499.695 180.051 499.274 179.889 498.922 179.565C498.57 179.236 498.393 178.841 498.393 178.381C498.393 177.915 498.57 177.52 498.922 177.196C499.274 176.866 499.695 176.702 500.183 176.702C500.678 176.702 501.098 176.866 501.445 177.196C501.797 177.52 501.973 177.915 501.973 178.381C501.973 178.841 501.797 179.236 501.445 179.565C501.098 179.889 500.678 180.051 500.183 180.051ZM508.657 195.264C507.827 195.264 507.08 195.116 506.415 194.821C505.756 194.52 505.234 194.077 504.847 193.491C504.467 192.906 504.276 192.185 504.276 191.327C504.276 190.588 504.413 189.977 504.685 189.494C504.958 189.011 505.33 188.625 505.802 188.335C506.273 188.045 506.805 187.827 507.396 187.679C507.992 187.526 508.609 187.415 509.245 187.347C510.012 187.267 510.634 187.196 511.112 187.134C511.589 187.065 511.935 186.963 512.151 186.827C512.373 186.685 512.484 186.466 512.484 186.17V186.119C512.484 185.477 512.293 184.98 511.913 184.628C511.532 184.276 510.984 184.099 510.268 184.099C509.512 184.099 508.913 184.264 508.469 184.594C508.032 184.923 507.737 185.312 507.583 185.761L504.702 185.352C504.93 184.557 505.305 183.892 505.827 183.358C506.35 182.818 506.989 182.415 507.745 182.148C508.501 181.875 509.336 181.739 510.251 181.739C510.881 181.739 511.509 181.812 512.134 181.96C512.759 182.108 513.33 182.352 513.847 182.693C514.364 183.028 514.779 183.486 515.092 184.065C515.41 184.645 515.569 185.369 515.569 186.239V195H512.603V193.202H512.501C512.313 193.565 512.049 193.906 511.708 194.224C511.373 194.537 510.95 194.79 510.438 194.983C509.933 195.17 509.339 195.264 508.657 195.264ZM509.458 192.997C510.077 192.997 510.614 192.875 511.069 192.631C511.523 192.381 511.873 192.051 512.117 191.642C512.367 191.233 512.492 190.787 512.492 190.304V188.761C512.396 188.841 512.231 188.915 511.998 188.983C511.771 189.051 511.515 189.111 511.231 189.162C510.947 189.213 510.665 189.259 510.387 189.298C510.109 189.338 509.867 189.372 509.663 189.401C509.202 189.463 508.79 189.565 508.427 189.707C508.063 189.849 507.776 190.048 507.566 190.304C507.356 190.554 507.251 190.878 507.251 191.276C507.251 191.844 507.458 192.273 507.873 192.562C508.288 192.852 508.816 192.997 509.458 192.997Z" fill="#333333"/>
<path d="M154.963 195H151.588L157.733 177.545H161.636L167.79 195H164.415L159.753 181.125H159.616L154.963 195ZM155.074 188.156H164.278V190.696H155.074V188.156ZM169.952 195V181.909H172.944V184.091H173.08C173.319 183.335 173.728 182.753 174.308 182.344C174.893 181.929 175.56 181.722 176.31 181.722C176.481 181.722 176.671 181.73 176.881 181.747C177.097 181.759 177.276 181.778 177.418 181.807V184.645C177.288 184.599 177.08 184.56 176.796 184.526C176.518 184.486 176.248 184.466 175.987 184.466C175.424 184.466 174.918 184.588 174.469 184.832C174.026 185.071 173.677 185.403 173.421 185.83C173.165 186.256 173.038 186.747 173.038 187.304V195H169.952ZM179.468 195V181.909H182.46V184.091H182.596C182.835 183.335 183.244 182.753 183.823 182.344C184.408 181.929 185.076 181.722 185.826 181.722C185.996 181.722 186.187 181.73 186.397 181.747C186.613 181.759 186.792 181.778 186.934 181.807V184.645C186.803 184.599 186.596 184.56 186.312 184.526C186.033 184.486 185.763 184.466 185.502 184.466C184.94 184.466 184.434 184.588 183.985 184.832C183.542 185.071 183.192 185.403 182.937 185.83C182.681 186.256 182.553 186.747 182.553 187.304V195H179.468ZM192.516 195.264C191.687 195.264 190.94 195.116 190.275 194.821C189.616 194.52 189.093 194.077 188.707 193.491C188.326 192.906 188.136 192.185 188.136 191.327C188.136 190.588 188.272 189.977 188.545 189.494C188.817 189.011 189.19 188.625 189.661 188.335C190.133 188.045 190.664 187.827 191.255 187.679C191.852 187.526 192.468 187.415 193.104 187.347C193.871 187.267 194.494 187.196 194.971 187.134C195.448 187.065 195.795 186.963 196.011 186.827C196.232 186.685 196.343 186.466 196.343 186.17V186.119C196.343 185.477 196.153 184.98 195.772 184.628C195.391 184.276 194.843 184.099 194.127 184.099C193.371 184.099 192.772 184.264 192.329 184.594C191.891 184.923 191.596 185.312 191.442 185.761L188.562 185.352C188.789 184.557 189.164 183.892 189.687 183.358C190.21 182.818 190.849 182.415 191.604 182.148C192.36 181.875 193.195 181.739 194.11 181.739C194.741 181.739 195.369 181.812 195.994 181.96C196.619 182.108 197.19 182.352 197.707 182.693C198.224 183.028 198.638 183.486 198.951 184.065C199.269 184.645 199.428 185.369 199.428 186.239V195H196.462V193.202H196.36C196.173 193.565 195.908 193.906 195.567 194.224C195.232 194.537 194.809 194.79 194.298 194.983C193.792 195.17 193.198 195.264 192.516 195.264ZM193.317 192.997C193.937 192.997 194.474 192.875 194.928 192.631C195.383 192.381 195.732 192.051 195.977 191.642C196.227 191.233 196.352 190.787 196.352 190.304V188.761C196.255 188.841 196.09 188.915 195.857 188.983C195.63 189.051 195.374 189.111 195.09 189.162C194.806 189.213 194.525 189.259 194.246 189.298C193.968 189.338 193.727 189.372 193.522 189.401C193.062 189.463 192.65 189.565 192.286 189.707C191.923 189.849 191.636 190.048 191.425 190.304C191.215 190.554 191.11 190.878 191.11 191.276C191.11 191.844 191.317 192.273 191.732 192.562C192.147 192.852 192.675 192.997 193.317 192.997ZM205.343 190.892L205.335 187.168H205.829L210.533 181.909H214.138L208.352 188.352H207.712L205.343 190.892ZM202.531 195V177.545H205.616V195H202.531ZM210.746 195L206.485 189.043L208.565 186.869L214.437 195H210.746ZM216.195 195V181.909H219.28V195H216.195ZM217.746 180.051C217.257 180.051 216.837 179.889 216.484 179.565C216.132 179.236 215.956 178.841 215.956 178.381C215.956 177.915 216.132 177.52 216.484 177.196C216.837 176.866 217.257 176.702 217.746 176.702C218.24 176.702 218.661 176.866 219.007 177.196C219.359 177.52 219.536 177.915 219.536 178.381C219.536 178.841 219.359 179.236 219.007 179.565C218.661 179.889 218.24 180.051 217.746 180.051ZM232.799 185.369L229.987 185.676C229.907 185.392 229.768 185.125 229.569 184.875C229.376 184.625 229.114 184.423 228.785 184.27C228.455 184.116 228.052 184.04 227.575 184.04C226.933 184.04 226.393 184.179 225.955 184.457C225.523 184.736 225.31 185.097 225.316 185.54C225.31 185.92 225.45 186.23 225.734 186.469C226.023 186.707 226.501 186.903 227.165 187.057L229.398 187.534C230.637 187.801 231.558 188.224 232.16 188.804C232.768 189.384 233.075 190.142 233.08 191.08C233.075 191.903 232.833 192.631 232.356 193.261C231.884 193.886 231.228 194.375 230.387 194.727C229.546 195.08 228.58 195.256 227.489 195.256C225.887 195.256 224.597 194.92 223.62 194.25C222.643 193.574 222.06 192.634 221.873 191.429L224.881 191.139C225.018 191.73 225.308 192.176 225.751 192.477C226.194 192.778 226.771 192.929 227.481 192.929C228.214 192.929 228.802 192.778 229.245 192.477C229.694 192.176 229.918 191.804 229.918 191.361C229.918 190.986 229.773 190.676 229.484 190.432C229.2 190.187 228.756 190 228.154 189.869L225.921 189.401C224.665 189.139 223.737 188.699 223.134 188.08C222.532 187.455 222.234 186.665 222.239 185.71C222.234 184.903 222.452 184.205 222.896 183.614C223.344 183.017 223.967 182.557 224.762 182.233C225.563 181.903 226.487 181.739 227.532 181.739C229.066 181.739 230.273 182.065 231.154 182.719C232.04 183.372 232.589 184.256 232.799 185.369Z" fill="#333333"/>
<path d="M503.207 815.344C503.128 814.599 502.793 814.02 502.202 813.605C501.616 813.19 500.855 812.983 499.918 812.983C499.259 812.983 498.693 813.082 498.222 813.281C497.75 813.48 497.389 813.75 497.139 814.091C496.889 814.432 496.761 814.821 496.756 815.259C496.756 815.622 496.838 815.937 497.003 816.205C497.173 816.472 497.403 816.699 497.693 816.886C497.983 817.068 498.304 817.222 498.656 817.347C499.009 817.472 499.364 817.577 499.722 817.662L501.358 818.071C502.017 818.224 502.651 818.432 503.259 818.693C503.872 818.955 504.42 819.284 504.903 819.682C505.392 820.08 505.778 820.56 506.062 821.122C506.347 821.685 506.489 822.344 506.489 823.099C506.489 824.122 506.227 825.023 505.705 825.801C505.182 826.574 504.426 827.179 503.438 827.616C502.455 828.048 501.264 828.264 499.866 828.264C498.509 828.264 497.33 828.054 496.33 827.634C495.335 827.213 494.557 826.599 493.994 825.793C493.438 824.986 493.136 824.003 493.091 822.844H496.202C496.247 823.452 496.435 823.957 496.764 824.361C497.094 824.764 497.523 825.065 498.051 825.264C498.585 825.463 499.182 825.562 499.841 825.562C500.528 825.562 501.131 825.46 501.648 825.256C502.17 825.045 502.58 824.756 502.875 824.386C503.17 824.011 503.321 823.574 503.327 823.074C503.321 822.619 503.188 822.244 502.926 821.949C502.665 821.648 502.298 821.398 501.827 821.199C501.361 820.994 500.815 820.812 500.19 820.653L498.205 820.142C496.767 819.773 495.631 819.213 494.795 818.463C493.966 817.707 493.551 816.705 493.551 815.455C493.551 814.426 493.83 813.526 494.386 812.753C494.949 811.98 495.713 811.381 496.679 810.955C497.645 810.523 498.739 810.307 499.96 810.307C501.199 810.307 502.284 810.523 503.216 810.955C504.153 811.381 504.889 811.974 505.423 812.736C505.957 813.491 506.233 814.361 506.25 815.344H503.207ZM509.171 828V814.909H512.256V828H509.171ZM510.722 813.051C510.234 813.051 509.813 812.889 509.461 812.565C509.109 812.236 508.933 811.841 508.933 811.381C508.933 810.915 509.109 810.52 509.461 810.196C509.813 809.866 510.234 809.702 510.722 809.702C511.217 809.702 511.637 809.866 511.984 810.196C512.336 810.52 512.512 810.915 512.512 811.381C512.512 811.841 512.336 812.236 511.984 812.565C511.637 812.889 511.217 813.051 510.722 813.051ZM515.429 828V814.909H518.42V817.091H518.557C518.795 816.335 519.205 815.753 519.784 815.344C520.369 814.929 521.037 814.722 521.787 814.722C521.957 814.722 522.148 814.73 522.358 814.747C522.574 814.759 522.753 814.778 522.895 814.807V817.645C522.764 817.599 522.557 817.56 522.273 817.526C521.994 817.486 521.724 817.466 521.463 817.466C520.901 817.466 520.395 817.588 519.946 817.832C519.503 818.071 519.153 818.403 518.898 818.83C518.642 819.256 518.514 819.747 518.514 820.304V828H515.429ZM524.945 828V814.909H528.03V828H524.945ZM526.496 813.051C526.007 813.051 525.587 812.889 525.234 812.565C524.882 812.236 524.706 811.841 524.706 811.381C524.706 810.915 524.882 810.52 525.234 810.196C525.587 809.866 526.007 809.702 526.496 809.702C526.99 809.702 527.411 809.866 527.757 810.196C528.109 810.52 528.286 810.915 528.286 811.381C528.286 811.841 528.109 812.236 527.757 812.565C527.411 812.889 526.99 813.051 526.496 813.051ZM539.546 822.494V814.909H542.631V828H539.64V825.673H539.504C539.208 826.406 538.722 827.006 538.046 827.472C537.376 827.937 536.549 828.17 535.566 828.17C534.708 828.17 533.95 827.98 533.29 827.599C532.637 827.213 532.126 826.653 531.756 825.92C531.387 825.182 531.202 824.29 531.202 823.244V814.909H534.288V822.767C534.288 823.597 534.515 824.256 534.969 824.744C535.424 825.233 536.021 825.477 536.759 825.477C537.214 825.477 537.654 825.366 538.08 825.145C538.506 824.923 538.856 824.594 539.129 824.156C539.407 823.713 539.546 823.159 539.546 822.494ZM556.151 818.369L553.338 818.676C553.259 818.392 553.119 818.125 552.92 817.875C552.727 817.625 552.466 817.423 552.136 817.27C551.807 817.116 551.403 817.04 550.926 817.04C550.284 817.04 549.744 817.179 549.307 817.457C548.875 817.736 548.662 818.097 548.668 818.54C548.662 818.92 548.801 819.23 549.085 819.469C549.375 819.707 549.852 819.903 550.517 820.057L552.75 820.534C553.989 820.801 554.909 821.224 555.511 821.804C556.119 822.384 556.426 823.142 556.432 824.08C556.426 824.903 556.185 825.631 555.707 826.261C555.236 826.886 554.58 827.375 553.739 827.727C552.898 828.08 551.932 828.256 550.841 828.256C549.239 828.256 547.949 827.92 546.972 827.25C545.994 826.574 545.412 825.634 545.224 824.429L548.233 824.139C548.369 824.73 548.659 825.176 549.102 825.477C549.545 825.778 550.122 825.929 550.832 825.929C551.565 825.929 552.153 825.778 552.597 825.477C553.045 825.176 553.27 824.804 553.27 824.361C553.27 823.986 553.125 823.676 552.835 823.432C552.551 823.187 552.108 823 551.506 822.869L549.273 822.401C548.017 822.139 547.088 821.699 546.486 821.08C545.884 820.455 545.585 819.665 545.591 818.71C545.585 817.903 545.804 817.205 546.247 816.614C546.696 816.017 547.318 815.557 548.114 815.233C548.915 814.903 549.838 814.739 550.884 814.739C552.418 814.739 553.625 815.065 554.506 815.719C555.392 816.372 555.94 817.256 556.151 818.369Z" fill="#333333"/>
<path d="M241.963 751H238.588L244.733 733.545H248.636L254.79 751H251.415L246.753 737.125H246.616L241.963 751ZM242.074 744.156H251.278V746.696H242.074V744.156ZM260.038 743.33V751H256.952V737.909H259.901V740.134H260.055C260.356 739.401 260.836 738.818 261.495 738.386C262.16 737.955 262.981 737.739 263.958 737.739C264.862 737.739 265.648 737.932 266.319 738.318C266.995 738.705 267.518 739.264 267.887 739.997C268.262 740.73 268.447 741.619 268.441 742.665V751H265.356V743.142C265.356 742.267 265.129 741.582 264.674 741.088C264.225 740.594 263.603 740.347 262.808 740.347C262.268 740.347 261.788 740.466 261.367 740.705C260.952 740.937 260.626 741.276 260.387 741.719C260.154 742.162 260.038 742.699 260.038 743.33ZM278.114 737.909V740.295H270.589V737.909H278.114ZM272.447 734.773H275.532V747.062C275.532 747.477 275.594 747.795 275.719 748.017C275.85 748.233 276.021 748.381 276.231 748.46C276.441 748.54 276.674 748.58 276.93 748.58C277.123 748.58 277.299 748.565 277.458 748.537C277.623 748.509 277.748 748.483 277.833 748.46L278.353 750.872C278.188 750.929 277.952 750.991 277.646 751.06C277.344 751.128 276.975 751.168 276.538 751.179C275.765 751.202 275.069 751.085 274.45 750.83C273.83 750.568 273.339 750.165 272.975 749.619C272.617 749.074 272.441 748.392 272.447 747.574V734.773ZM284.462 751.264C283.632 751.264 282.885 751.116 282.22 750.821C281.561 750.52 281.038 750.077 280.652 749.491C280.271 748.906 280.081 748.185 280.081 747.327C280.081 746.588 280.217 745.977 280.49 745.494C280.763 745.011 281.135 744.625 281.607 744.335C282.078 744.045 282.609 743.827 283.2 743.679C283.797 743.526 284.413 743.415 285.05 743.347C285.817 743.267 286.439 743.196 286.916 743.134C287.393 743.065 287.74 742.963 287.956 742.827C288.178 742.685 288.288 742.466 288.288 742.17V742.119C288.288 741.477 288.098 740.98 287.717 740.628C287.337 740.276 286.788 740.099 286.072 740.099C285.317 740.099 284.717 740.264 284.274 740.594C283.837 740.923 283.541 741.312 283.388 741.761L280.507 741.352C280.734 740.557 281.109 739.892 281.632 739.358C282.155 738.818 282.794 738.415 283.55 738.148C284.305 737.875 285.141 737.739 286.055 737.739C286.686 737.739 287.314 737.812 287.939 737.96C288.564 738.108 289.135 738.352 289.652 738.693C290.169 739.028 290.584 739.486 290.896 740.065C291.214 740.645 291.374 741.369 291.374 742.239V751H288.408V749.202H288.305C288.118 749.565 287.854 749.906 287.513 750.224C287.178 750.537 286.754 750.79 286.243 750.983C285.737 751.17 285.143 751.264 284.462 751.264ZM285.263 748.997C285.882 748.997 286.419 748.875 286.874 748.631C287.328 748.381 287.678 748.051 287.922 747.642C288.172 747.233 288.297 746.787 288.297 746.304V744.761C288.2 744.841 288.036 744.915 287.803 744.983C287.575 745.051 287.32 745.111 287.036 745.162C286.751 745.213 286.47 745.259 286.192 745.298C285.913 745.338 285.672 745.372 285.467 745.401C285.007 745.463 284.595 745.565 284.232 745.707C283.868 745.849 283.581 746.048 283.371 746.304C283.161 746.554 283.055 746.878 283.055 747.276C283.055 747.844 283.263 748.273 283.678 748.562C284.092 748.852 284.621 748.997 285.263 748.997ZM294.476 751V737.909H297.467V740.091H297.604C297.842 739.335 298.251 738.753 298.831 738.344C299.416 737.929 300.084 737.722 300.834 737.722C301.004 737.722 301.195 737.73 301.405 737.747C301.621 737.759 301.8 737.778 301.942 737.807V740.645C301.811 740.599 301.604 740.56 301.32 740.526C301.041 740.486 300.771 740.466 300.51 740.466C299.947 740.466 299.442 740.588 298.993 740.832C298.55 741.071 298.2 741.403 297.945 741.83C297.689 742.256 297.561 742.747 297.561 743.304V751H294.476ZM309.248 751.256C307.935 751.256 306.802 750.983 305.847 750.438C304.898 749.886 304.168 749.108 303.657 748.102C303.146 747.091 302.89 745.901 302.89 744.531C302.89 743.185 303.146 742.003 303.657 740.986C304.174 739.963 304.896 739.168 305.822 738.599C306.748 738.026 307.836 737.739 309.086 737.739C309.893 737.739 310.654 737.869 311.37 738.131C312.092 738.386 312.728 738.784 313.279 739.324C313.836 739.864 314.273 740.551 314.592 741.386C314.91 742.216 315.069 743.205 315.069 744.352V745.298H304.339V743.219H312.112C312.106 742.628 311.978 742.102 311.728 741.642C311.478 741.176 311.129 740.81 310.68 740.543C310.237 740.276 309.719 740.142 309.129 740.142C308.498 740.142 307.944 740.295 307.467 740.602C306.989 740.903 306.617 741.301 306.35 741.795C306.089 742.284 305.955 742.821 305.95 743.406V745.222C305.95 745.983 306.089 746.636 306.367 747.182C306.646 747.722 307.035 748.136 307.535 748.426C308.035 748.71 308.62 748.852 309.29 748.852C309.739 748.852 310.146 748.79 310.509 748.665C310.873 748.534 311.188 748.344 311.455 748.094C311.722 747.844 311.924 747.534 312.06 747.165L314.941 747.489C314.759 748.25 314.413 748.915 313.901 749.483C313.396 750.045 312.748 750.483 311.958 750.795C311.168 751.102 310.265 751.256 309.248 751.256ZM328.026 741.369L325.213 741.676C325.134 741.392 324.994 741.125 324.795 740.875C324.602 740.625 324.341 740.423 324.011 740.27C323.682 740.116 323.278 740.04 322.801 740.04C322.159 740.04 321.619 740.179 321.182 740.457C320.75 740.736 320.537 741.097 320.543 741.54C320.537 741.92 320.676 742.23 320.96 742.469C321.25 742.707 321.727 742.903 322.392 743.057L324.625 743.534C325.864 743.801 326.784 744.224 327.386 744.804C327.994 745.384 328.301 746.142 328.307 747.08C328.301 747.903 328.06 748.631 327.582 749.261C327.111 749.886 326.455 750.375 325.614 750.727C324.773 751.08 323.807 751.256 322.716 751.256C321.114 751.256 319.824 750.92 318.847 750.25C317.869 749.574 317.287 748.634 317.099 747.429L320.108 747.139C320.244 747.73 320.534 748.176 320.977 748.477C321.42 748.778 321.997 748.929 322.707 748.929C323.44 748.929 324.028 748.778 324.472 748.477C324.92 748.176 325.145 747.804 325.145 747.361C325.145 746.986 325 746.676 324.71 746.432C324.426 746.187 323.983 746 323.381 745.869L321.148 745.401C319.892 745.139 318.963 744.699 318.361 744.08C317.759 743.455 317.46 742.665 317.466 741.71C317.46 740.903 317.679 740.205 318.122 739.614C318.571 739.017 319.193 738.557 319.989 738.233C320.79 737.903 321.713 737.739 322.759 737.739C324.293 737.739 325.5 738.065 326.381 738.719C327.267 739.372 327.815 740.256 328.026 741.369Z" fill="#333333"/>
<path d="M72.7216 734.545H76.5909L81.7727 747.193H81.9773L87.1591 734.545H91.0284V752H87.9943V740.009H87.8324L83.0085 751.949H80.7415L75.9176 739.983H75.7557V752H72.7216V734.545ZM98.1023 752.264C97.2727 752.264 96.5256 752.116 95.8608 751.821C95.2017 751.52 94.679 751.077 94.2926 750.491C93.9119 749.906 93.7216 749.185 93.7216 748.327C93.7216 747.588 93.858 746.977 94.1307 746.494C94.4034 746.011 94.7756 745.625 95.2472 745.335C95.7188 745.045 96.25 744.827 96.8409 744.679C97.4375 744.526 98.054 744.415 98.6903 744.347C99.4574 744.267 100.08 744.196 100.557 744.134C101.034 744.065 101.381 743.963 101.597 743.827C101.818 743.685 101.929 743.466 101.929 743.17V743.119C101.929 742.477 101.739 741.98 101.358 741.628C100.977 741.276 100.429 741.099 99.7131 741.099C98.9574 741.099 98.358 741.264 97.9148 741.594C97.4773 741.923 97.1818 742.312 97.0284 742.761L94.1477 742.352C94.375 741.557 94.75 740.892 95.2727 740.358C95.7955 739.818 96.4347 739.415 97.1903 739.148C97.946 738.875 98.7813 738.739 99.696 738.739C100.327 738.739 100.955 738.812 101.58 738.96C102.205 739.108 102.776 739.352 103.293 739.693C103.81 740.028 104.224 740.486 104.537 741.065C104.855 741.645 105.014 742.369 105.014 743.239V752H102.048V750.202H101.946C101.759 750.565 101.494 750.906 101.153 751.224C100.818 751.537 100.395 751.79 99.8835 751.983C99.3778 752.17 98.7841 752.264 98.1023 752.264ZM98.9034 749.997C99.5227 749.997 100.06 749.875 100.514 749.631C100.969 749.381 101.318 749.051 101.562 748.642C101.812 748.233 101.938 747.787 101.938 747.304V745.761C101.841 745.841 101.676 745.915 101.443 745.983C101.216 746.051 100.96 746.111 100.676 746.162C100.392 746.213 100.111 746.259 99.8324 746.298C99.554 746.338 99.3125 746.372 99.108 746.401C98.6477 746.463 98.2358 746.565 97.8722 746.707C97.5085 746.849 97.2216 747.048 97.0114 747.304C96.8011 747.554 96.696 747.878 96.696 748.276C96.696 748.844 96.9034 749.273 97.3182 749.562C97.733 749.852 98.2614 749.997 98.9034 749.997ZM108.116 752V738.909H111.108V741.091H111.244C111.483 740.335 111.892 739.753 112.472 739.344C113.057 738.929 113.724 738.722 114.474 738.722C114.645 738.722 114.835 738.73 115.045 738.747C115.261 738.759 115.44 738.778 115.582 738.807V741.645C115.452 741.599 115.244 741.56 114.96 741.526C114.682 741.486 114.412 741.466 114.151 741.466C113.588 741.466 113.082 741.588 112.634 741.832C112.19 742.071 111.841 742.403 111.585 742.83C111.33 743.256 111.202 743.747 111.202 744.304V752H108.116ZM127.979 742.369L125.166 742.676C125.087 742.392 124.947 742.125 124.749 741.875C124.555 741.625 124.294 741.423 123.964 741.27C123.635 741.116 123.232 741.04 122.754 741.04C122.112 741.04 121.572 741.179 121.135 741.457C120.703 741.736 120.49 742.097 120.496 742.54C120.49 742.92 120.629 743.23 120.913 743.469C121.203 743.707 121.68 743.903 122.345 744.057L124.578 744.534C125.817 744.801 126.737 745.224 127.339 745.804C127.947 746.384 128.254 747.142 128.26 748.08C128.254 748.903 128.013 749.631 127.536 750.261C127.064 750.886 126.408 751.375 125.567 751.727C124.726 752.08 123.76 752.256 122.669 752.256C121.067 752.256 119.777 751.92 118.8 751.25C117.822 750.574 117.24 749.634 117.053 748.429L120.061 748.139C120.197 748.73 120.487 749.176 120.93 749.477C121.374 749.778 121.95 749.929 122.661 749.929C123.393 749.929 123.982 749.778 124.425 749.477C124.874 749.176 125.098 748.804 125.098 748.361C125.098 747.986 124.953 747.676 124.663 747.432C124.379 747.187 123.936 747 123.334 746.869L121.101 746.401C119.845 746.139 118.916 745.699 118.314 745.08C117.712 744.455 117.413 743.665 117.419 742.71C117.413 741.903 117.632 741.205 118.075 740.614C118.524 740.017 119.146 739.557 119.942 739.233C120.743 738.903 121.666 738.739 122.712 738.739C124.246 738.739 125.453 739.065 126.334 739.719C127.22 740.372 127.768 741.256 127.979 742.369Z" fill="#333333"/>
</svg>
