<svg width="869" height="1100" viewBox="0 0 869 1100" fill="none" xmlns="http://www.w3.org/2000/svg"><rect id="background" width="869.0" height="1100.0" fill="#ffffff"/><path d="M555.954 893.598C555.874 892.854 555.539 892.274 554.948 891.859 554.363 891.444 553.601 891.237 552.664 891.237 552.005 891.237 551.439 891.337 550.968 891.535 550.496 891.734 550.135 892.004 549.885 892.345 549.635 892.686 549.508 893.075 549.502 893.513 549.502 893.876 549.584 894.192 549.749 894.459 549.92 894.726 550.15 894.953 550.439 895.141 550.729 895.322 551.05 895.476 551.403 895.601 551.755 895.726 552.11 895.831 552.468 895.916L554.104 896.325C554.763 896.479 555.397 896.686 556.005 896.947 556.618 897.209 557.167 897.538 557.65 897.936 558.138 898.334 558.525 898.814 558.809 899.376 559.093 899.939 559.235 900.598 559.235 901.354 559.235 902.376 558.974 903.277 558.451 904.055 557.928 904.828 557.172 905.433 556.184 905.871 555.201 906.302 554.01 906.518 552.613 906.518 551.255 906.518 550.076 906.308 549.076 905.888 548.082 905.467 547.303 904.854 546.741 904.047 546.184 903.24 545.883 902.257 545.837 901.098L548.948 901.098C548.993 901.706 549.181 902.212 549.51 902.615 549.84 903.018 550.269 903.319 550.797 903.518 551.332 903.717 551.928 903.817 552.587 903.817 553.275 903.817 553.877 903.714 554.394 903.51 554.917 903.3 555.326 903.01 555.621 902.641 555.917 902.266 556.067 901.828 556.073 901.328 556.067 900.873 555.934 900.498 555.672 900.203 555.411 899.902 555.045 899.652 554.573 899.453 554.107 899.248 553.562 899.067 552.937 898.908L550.951 898.396C549.513 898.027 548.377 897.467 547.542 896.717 546.712 895.962 546.297 894.959 546.297 893.709 546.297 892.68 546.576 891.78 547.133 891.007 547.695 890.234 548.459 889.635 549.425 889.209 550.391 888.777 551.485 888.561 552.707 888.561 553.945 888.561 555.03 888.777 555.962 889.209 556.9 889.635 557.635 890.229 558.17 890.99 558.704 891.746 558.979 892.615 558.996 893.598L555.954 893.598ZM555.954 893.598 555.954 893.598L555.954 893.598 555.954 893.598 555.954 893.598 555.954 893.598 555.954 893.598 555.954 893.598 555.954 893.598 555.954 893.598 555.954 893.598 555.954 893.598 555.954 893.598 555.954 893.598 561.917 906.254 561.917 893.163 565.003 893.163 565.003 906.254 561.917 906.254 555.954 893.598ZM555.954 893.598 555.954 893.598L555.954 893.598 555.954 893.598 555.954 893.598 555.954 893.598 555.954 893.598 555.954 893.598 555.954 893.598 555.954 893.598 555.954 893.598 555.954 893.598 555.954 893.598 561.917 906.254 563.469 891.305C562.98 891.305 562.559 891.143 562.207 890.819 561.855 890.49 561.679 890.095 561.679 889.635 561.679 889.169 561.855 888.774 562.207 888.45 562.559 888.121 562.98 887.956 563.469 887.956 563.963 887.956 564.383 888.121 564.73 888.45 565.082 888.774 565.258 889.169 565.258 889.635 565.258 890.095 565.082 890.49 564.73 890.819 564.383 891.143 563.963 891.305 563.469 891.305L561.917 906.254 555.954 893.598ZM555.954 893.598 555.954 893.598L555.954 893.598 555.954 893.598 555.954 893.598 555.954 893.598 555.954 893.598 555.954 893.598 555.954 893.598 555.954 893.598 555.954 893.598 555.954 893.598 561.917 906.254 563.469 891.305 568.175 906.254 568.175 893.163 571.167 893.163 571.167 895.345 571.303 895.345C571.542 894.589 571.951 894.007 572.53 893.598 573.116 893.183 573.783 892.976 574.533 892.976 574.704 892.976 574.894 892.984 575.104 893.001 575.32 893.013 575.499 893.033 575.641 893.061L575.641 895.899C575.51 895.854 575.303 895.814 575.019 895.78 574.741 895.74 574.471 895.72 574.209 895.72 573.647 895.72 573.141 895.842 572.692 896.087 572.249 896.325 571.9 896.658 571.644 897.084 571.388 897.51 571.26 898.001 571.26 898.558L571.26 906.254 568.175 906.254 563.469 891.305 561.917 906.254 555.954 893.598ZM555.954 893.598 555.954 893.598L555.954 893.598 555.954 893.598 555.954 893.598 555.954 893.598 555.954 893.598 555.954 893.598 555.954 893.598 555.954 893.598 555.954 893.598 561.917 906.254 563.469 891.305 568.175 906.254 577.691 906.254 577.691 893.163 580.776 893.163 580.776 906.254 577.691 906.254 568.175 906.254 563.469 891.305 561.917 906.254 555.954 893.598ZM555.954 893.598 555.954 893.598L555.954 893.598 555.954 893.598 555.954 893.598 555.954 893.598 555.954 893.598 555.954 893.598 555.954 893.598 555.954 893.598 561.917 906.254 563.469 891.305 568.175 906.254 577.691 906.254 579.242 891.305C578.753 891.305 578.333 891.143 577.981 890.819 577.628 890.49 577.452 890.095 577.452 889.635 577.452 889.169 577.628 888.774 577.981 888.45 578.333 888.121 578.753 887.956 579.242 887.956 579.736 887.956 580.157 888.121 580.503 888.45 580.856 888.774 581.032 889.169 581.032 889.635 581.032 890.095 580.856 890.49 580.503 890.819 580.157 891.143 579.736 891.305 579.242 891.305L577.691 906.254 568.175 906.254 563.469 891.305 561.917 906.254 555.954 893.598ZM555.954 893.598 555.954 893.598L555.954 893.598 555.954 893.598 555.954 893.598 555.954 893.598 555.954 893.598 555.954 893.598 555.954 893.598 561.917 906.254 563.469 891.305 568.175 906.254 577.691 906.254 579.242 891.305 592.292 900.748 592.292 893.163 595.378 893.163 595.378 906.254 592.386 906.254 592.386 903.927 592.25 903.927C591.954 904.66 591.469 905.26 590.792 905.726 590.122 906.192 589.295 906.425 588.312 906.425 587.454 906.425 586.696 906.234 586.037 905.854 585.383 905.467 584.872 904.908 584.503 904.175 584.133 903.436 583.949 902.544 583.949 901.498L583.949 893.163 587.034 893.163 587.034 901.021C587.034 901.851 587.261 902.51 587.716 902.998 588.17 903.487 588.767 903.731 589.506 903.731 589.96 903.731 590.4 903.621 590.827 903.399 591.253 903.177 591.602 902.848 591.875 902.41 592.153 901.967 592.292 901.413 592.292 900.748L579.242 891.305 577.691 906.254 568.175 906.254 563.469 891.305 561.917 906.254 555.954 893.598ZM555.954 893.598 555.954 893.598L555.954 893.598 555.954 893.598 555.954 893.598 555.954 893.598 555.954 893.598 555.954 893.598 561.917 906.254 563.469 891.305 568.175 906.254 577.691 906.254 579.242 891.305 592.292 900.748 608.897 896.623 606.084 896.93C606.005 896.646 605.866 896.379 605.667 896.129 605.474 895.879 605.212 895.677 604.883 895.524 604.553 895.371 604.15 895.294 603.672 895.294 603.03 895.294 602.491 895.433 602.053 895.712 601.621 895.99 601.408 896.351 601.414 896.794 601.408 897.175 601.547 897.484 601.832 897.723 602.121 897.962 602.599 898.158 603.263 898.311L605.496 898.788C606.735 899.055 607.655 899.479 608.258 900.058 608.866 900.638 609.172 901.396 609.178 902.334 609.172 903.158 608.931 903.885 608.454 904.516 607.982 905.141 607.326 905.629 606.485 905.981 605.644 906.334 604.678 906.51 603.587 906.51 601.985 906.51 600.695 906.175 599.718 905.504 598.741 904.828 598.158 903.888 597.971 902.683L600.979 902.393C601.116 902.984 601.405 903.43 601.849 903.731 602.292 904.033 602.868 904.183 603.579 904.183 604.312 904.183 604.9 904.033 605.343 903.731 605.792 903.43 606.016 903.058 606.016 902.615 606.016 902.24 605.871 901.93 605.582 901.686 605.297 901.442 604.854 901.254 604.252 901.123L602.019 900.655C600.763 900.393 599.834 899.953 599.232 899.334 598.63 898.709 598.332 897.919 598.337 896.964 598.332 896.158 598.55 895.459 598.993 894.868 599.442 894.271 600.064 893.811 600.86 893.487 601.661 893.158 602.584 892.993 603.63 892.993 605.164 892.993 606.371 893.319 607.252 893.973 608.138 894.626 608.687 895.51 608.897 896.623L592.292 900.748 579.242 891.305 577.691 906.254 568.175 906.254 563.469 891.305 561.917 906.254 555.954 893.598Z" fill="#333333" stroke="#0000ff" stroke-width="0"/><path d="M295.963 819.0L292.588 819.0 298.733 801.545 302.636 801.545 308.79 819.0 305.415 819.0 300.753 805.125 300.616 805.125 295.963 819.0ZM295.963 819.0 295.963 819.0L295.963 819.0 295.963 819.0 295.963 819.0 295.963 819.0 295.963 819.0 295.963 819.0 295.963 819.0 295.963 819.0 295.963 819.0 295.963 819.0 295.963 819.0 295.963 819.0 296.074 812.156 305.278 812.156 305.278 814.696 296.074 814.696 296.074 812.156 295.963 819.0ZM295.963 819.0 295.963 819.0L295.963 819.0 295.963 819.0 295.963 819.0 295.963 819.0 295.963 819.0 295.963 819.0 295.963 819.0 295.963 819.0 295.963 819.0 295.963 819.0 295.963 819.0 296.074 812.156 314.038 811.33 314.038 819.0 310.952 819.0 310.952 805.909 313.901 805.909 313.901 808.134 314.055 808.134C314.356 807.401 314.836 806.818 315.495 806.386 316.16 805.955 316.981 805.739 317.958 805.739 318.862 805.739 319.648 805.932 320.319 806.318 320.995 806.705 321.518 807.264 321.887 807.997 322.262 808.73 322.447 809.619 322.441 810.665L322.441 819.0 319.356 819.0 319.356 811.142C319.356 810.267 319.129 809.582 318.674 809.088 318.225 808.594 317.603 808.347 316.808 808.347 316.268 808.347 315.788 808.466 315.367 808.705 314.952 808.937 314.626 809.276 314.387 809.719 314.154 810.162 314.038 810.699 314.038 811.33L296.074 812.156 295.963 819.0ZM295.963 819.0 295.963 819.0L295.963 819.0 295.963 819.0 295.963 819.0 295.963 819.0 295.963 819.0 295.963 819.0 295.963 819.0 295.963 819.0 295.963 819.0 295.963 819.0 296.074 812.156 314.038 811.33 332.114 805.909 332.114 808.295 324.589 808.295 324.589 805.909 332.114 805.909 314.038 811.33 296.074 812.156 295.963 819.0ZM295.963 819.0 295.963 819.0L295.963 819.0 295.963 819.0 295.963 819.0 295.963 819.0 295.963 819.0 295.963 819.0 295.963 819.0 295.963 819.0 295.963 819.0 296.074 812.156 314.038 811.33 332.114 805.909 326.447 802.773 329.532 802.773 329.532 815.062C329.532 815.477 329.594 815.795 329.719 816.017 329.85 816.233 330.021 816.381 330.231 816.46 330.441 816.54 330.674 816.58 330.93 816.58 331.123 816.58 331.299 816.565 331.458 816.537 331.623 816.509 331.748 816.483 331.833 816.46L332.353 818.872C332.188 818.929 331.952 818.991 331.646 819.06 331.344 819.128 330.975 819.168 330.538 819.179 329.765 819.202 329.069 819.085 328.45 818.83 327.83 818.568 327.339 818.165 326.975 817.619 326.617 817.074 326.441 816.392 326.447 815.574L326.447 802.773 332.114 805.909 314.038 811.33 296.074 812.156 295.963 819.0ZM295.963 819.0 295.963 819.0L295.963 819.0 295.963 819.0 295.963 819.0 295.963 819.0 295.963 819.0 295.963 819.0 295.963 819.0 295.963 819.0 296.074 812.156 314.038 811.33 332.114 805.909 326.447 802.773 338.462 819.264C337.632 819.264 336.885 819.116 336.22 818.821 335.561 818.52 335.038 818.077 334.652 817.491 334.271 816.906 334.081 816.185 334.081 815.327 334.081 814.588 334.217 813.977 334.49 813.494 334.763 813.011 335.135 812.625 335.607 812.335 336.078 812.045 336.609 811.827 337.2 811.679 337.797 811.526 338.413 811.415 339.05 811.347 339.817 811.267 340.439 811.196 340.916 811.134 341.393 811.065 341.74 810.963 341.956 810.827 342.178 810.685 342.288 810.466 342.288 810.17L342.288 810.119C342.288 809.477 342.098 808.98 341.717 808.628 341.337 808.276 340.788 808.099 340.072 808.099 339.317 808.099 338.717 808.264 338.274 808.594 337.837 808.923 337.541 809.312 337.388 809.761L334.507 809.352C334.734 808.557 335.109 807.892 335.632 807.358 336.155 806.818 336.794 806.415 337.55 806.148 338.305 805.875 339.141 805.739 340.055 805.739 340.686 805.739 341.314 805.812 341.939 805.96 342.564 806.108 343.135 806.352 343.652 806.693 344.169 807.028 344.584 807.486 344.896 808.065 345.214 808.645 345.374 809.369 345.374 810.239L345.374 819.0 342.408 819.0 342.408 817.202 342.305 817.202C342.118 817.565 341.854 817.906 341.513 818.224 341.178 818.537 340.754 818.79 340.243 818.983 339.737 819.17 339.143 819.264 338.462 819.264L326.447 802.773 332.114 805.909 314.038 811.33 296.074 812.156 295.963 819.0ZM295.963 819.0 295.963 819.0L295.963 819.0 295.963 819.0 295.963 819.0 295.963 819.0 295.963 819.0 295.963 819.0 295.963 819.0 296.074 812.156 314.038 811.33 332.114 805.909 326.447 802.773 338.462 819.264 339.263 816.997C339.882 816.997 340.419 816.875 340.874 816.631 341.328 816.381 341.678 816.051 341.922 815.642 342.172 815.233 342.297 814.787 342.297 814.304L342.297 812.761C342.2 812.841 342.036 812.915 341.803 812.983 341.575 813.051 341.32 813.111 341.036 813.162 340.751 813.213 340.47 813.259 340.192 813.298 339.913 813.338 339.672 813.372 339.467 813.401 339.007 813.463 338.595 813.565 338.232 813.707 337.868 813.849 337.581 814.048 337.371 814.304 337.161 814.554 337.055 814.878 337.055 815.276 337.055 815.844 337.263 816.273 337.678 816.562 338.092 816.852 338.621 816.997 339.263 816.997L338.462 819.264 326.447 802.773 332.114 805.909 314.038 811.33 296.074 812.156 295.963 819.0ZM295.963 819.0 295.963 819.0L295.963 819.0 295.963 819.0 295.963 819.0 295.963 819.0 295.963 819.0 295.963 819.0 296.074 812.156 314.038 811.33 332.114 805.909 326.447 802.773 338.462 819.264 339.263 816.997 348.476 819.0 348.476 805.909 351.467 805.909 351.467 808.091 351.604 808.091C351.842 807.335 352.251 806.753 352.831 806.344 353.416 805.929 354.084 805.722 354.834 805.722 355.004 805.722 355.195 805.73 355.405 805.747 355.621 805.759 355.8 805.778 355.942 805.807L355.942 808.645C355.811 808.599 355.604 808.56 355.32 808.526 355.041 808.486 354.771 808.466 354.51 808.466 353.947 808.466 353.442 808.588 352.993 808.832 352.55 809.071 352.2 809.403 351.945 809.83 351.689 810.256 351.561 810.747 351.561 811.304L351.561 819.0 348.476 819.0 339.263 816.997 338.462 819.264 326.447 802.773 332.114 805.909 314.038 811.33 296.074 812.156 295.963 819.0ZM295.963 819.0 295.963 819.0L295.963 819.0 295.963 819.0 295.963 819.0 295.963 819.0 295.963 819.0 296.074 812.156 314.038 811.33 332.114 805.909 326.447 802.773 338.462 819.264 339.263 816.997 348.476 819.0 363.248 819.256C361.935 819.256 360.802 818.983 359.847 818.438 358.898 817.886 358.168 817.108 357.657 816.102 357.146 815.091 356.89 813.901 356.89 812.531 356.89 811.185 357.146 810.003 357.657 808.986 358.174 807.963 358.896 807.168 359.822 806.599 360.748 806.026 361.836 805.739 363.086 805.739 363.893 805.739 364.654 805.869 365.37 806.131 366.092 806.386 366.728 806.784 367.279 807.324 367.836 807.864 368.273 808.551 368.592 809.386 368.91 810.216 369.069 811.205 369.069 812.352L369.069 813.298 358.339 813.298 358.339 811.219 366.112 811.219C366.106 810.628 365.978 810.102 365.728 809.642 365.478 809.176 365.129 808.81 364.68 808.543 364.237 808.276 363.719 808.142 363.129 808.142 362.498 808.142 361.944 808.295 361.467 808.602 360.989 808.903 360.617 809.301 360.35 809.795 360.089 810.284 359.955 810.821 359.95 811.406L359.95 813.222C359.95 813.983 360.089 814.636 360.367 815.182 360.646 815.722 361.035 816.136 361.535 816.426 362.035 816.71 362.62 816.852 363.29 816.852 363.739 816.852 364.146 816.79 364.509 816.665 364.873 816.534 365.188 816.344 365.455 816.094 365.722 815.844 365.924 815.534 366.06 815.165L368.941 815.489C368.759 816.25 368.413 816.915 367.901 817.483 367.396 818.045 366.748 818.483 365.958 818.795 365.168 819.102 364.265 819.256 363.248 819.256L348.476 819.0 339.263 816.997 338.462 819.264 326.447 802.773 332.114 805.909 314.038 811.33 296.074 812.156 295.963 819.0ZM295.963 819.0 295.963 819.0L295.963 819.0 295.963 819.0 295.963 819.0 295.963 819.0 296.074 812.156 314.038 811.33 332.114 805.909 326.447 802.773 338.462 819.264 339.263 816.997 348.476 819.0 363.248 819.256 382.026 809.369 379.213 809.676C379.134 809.392 378.994 809.125 378.795 808.875 378.602 808.625 378.341 808.423 378.011 808.27 377.682 808.116 377.278 808.04 376.801 808.04 376.159 808.04 375.619 808.179 375.182 808.457 374.75 808.736 374.537 809.097 374.543 809.54 374.537 809.92 374.676 810.23 374.96 810.469 375.25 810.707 375.727 810.903 376.392 811.057L378.625 811.534C379.864 811.801 380.784 812.224 381.386 812.804 381.994 813.384 382.301 814.142 382.307 815.08 382.301 815.903 382.06 816.631 381.582 817.261 381.111 817.886 380.455 818.375 379.614 818.727 378.773 819.08 377.807 819.256 376.716 819.256 375.114 819.256 373.824 818.92 372.847 818.25 371.869 817.574 371.287 816.634 371.099 815.429L374.108 815.139C374.244 815.73 374.534 816.176 374.977 816.477 375.42 816.778 375.997 816.929 376.707 816.929 377.44 816.929 378.028 816.778 378.472 816.477 378.92 816.176 379.145 815.804 379.145 815.361 379.145 814.986 379.0 814.676 378.71 814.432 378.426 814.187 377.983 814.0 377.381 813.869L375.148 813.401C373.892 813.139 372.963 812.699 372.361 812.08 371.759 811.455 371.46 810.665 371.466 809.71 371.46 808.903 371.679 808.205 372.122 807.614 372.571 807.017 373.193 806.557 373.989 806.233 374.79 805.903 375.713 805.739 376.759 805.739 378.293 805.739 379.5 806.065 380.381 806.719 381.267 807.372 381.815 808.256 382.026 809.369L363.248 819.256 348.476 819.0 339.263 816.997 338.462 819.264 326.447 802.773 332.114 805.909 314.038 811.33 296.074 812.156 295.963 819.0Z" fill="#333333" stroke="#0000ff" stroke-width="0"/><path d="M123.722 801.545L127.591 801.545 132.773 814.193 132.977 814.193 138.159 801.545 142.028 801.545 142.028 819.0 138.994 819.0 138.994 807.009 138.832 807.009 134.009 818.949 131.741 818.949 126.918 806.983 126.756 806.983 126.756 819.0 123.722 819.0 123.722 801.545ZM123.722 801.545 123.722 801.545L123.722 801.545 123.722 801.545 123.722 801.545 123.722 801.545 123.722 801.545 123.722 801.545 123.722 801.545 123.722 801.545 123.722 801.545 123.722 801.545 123.722 801.545 123.722 801.545 149.102 819.264C148.273 819.264 147.526 819.116 146.861 818.821 146.202 818.52 145.679 818.077 145.293 817.491 144.912 816.906 144.722 816.185 144.722 815.327 144.722 814.588 144.858 813.977 145.131 813.494 145.403 813.011 145.776 812.625 146.247 812.335 146.719 812.045 147.25 811.827 147.841 811.679 148.438 811.526 149.054 811.415 149.69 811.347 150.457 811.267 151.08 811.196 151.557 811.134 152.034 811.065 152.381 810.963 152.597 810.827 152.818 810.685 152.929 810.466 152.929 810.17L152.929 810.119C152.929 809.477 152.739 808.98 152.358 808.628 151.977 808.276 151.429 808.099 150.713 808.099 149.957 808.099 149.358 808.264 148.915 808.594 148.477 808.923 148.182 809.312 148.028 809.761L145.148 809.352C145.375 808.557 145.75 807.892 146.273 807.358 146.795 806.818 147.435 806.415 148.19 806.148 148.946 805.875 149.781 805.739 150.696 805.739 151.327 805.739 151.955 805.812 152.58 805.96 153.205 806.108 153.776 806.352 154.293 806.693 154.81 807.028 155.224 807.486 155.537 808.065 155.855 808.645 156.014 809.369 156.014 810.239L156.014 819.0 153.048 819.0 153.048 817.202 152.946 817.202C152.759 817.565 152.494 817.906 152.153 818.224 151.818 818.537 151.395 818.79 150.884 818.983 150.378 819.17 149.784 819.264 149.102 819.264L123.722 801.545ZM123.722 801.545 123.722 801.545L123.722 801.545 123.722 801.545 123.722 801.545 123.722 801.545 123.722 801.545 123.722 801.545 123.722 801.545 123.722 801.545 123.722 801.545 123.722 801.545 123.722 801.545 149.102 819.264 149.903 816.997C150.523 816.997 151.06 816.875 151.514 816.631 151.969 816.381 152.318 816.051 152.562 815.642 152.812 815.233 152.938 814.787 152.938 814.304L152.938 812.761C152.841 812.841 152.676 812.915 152.443 812.983 152.216 813.051 151.96 813.111 151.676 813.162 151.392 813.213 151.111 813.259 150.832 813.298 150.554 813.338 150.313 813.372 150.108 813.401 149.648 813.463 149.236 813.565 148.872 813.707 148.509 813.849 148.222 814.048 148.011 814.304 147.801 814.554 147.696 814.878 147.696 815.276 147.696 815.844 147.903 816.273 148.318 816.562 148.733 816.852 149.261 816.997 149.903 816.997L149.102 819.264 123.722 801.545ZM123.722 801.545 123.722 801.545L123.722 801.545 123.722 801.545 123.722 801.545 123.722 801.545 123.722 801.545 123.722 801.545 123.722 801.545 123.722 801.545 123.722 801.545 123.722 801.545 149.102 819.264 149.903 816.997 159.116 819.0 159.116 805.909 162.108 805.909 162.108 808.091 162.244 808.091C162.483 807.335 162.892 806.753 163.472 806.344 164.057 805.929 164.724 805.722 165.474 805.722 165.645 805.722 165.835 805.73 166.045 805.747 166.261 805.759 166.44 805.778 166.582 805.807L166.582 808.645C166.452 808.599 166.244 808.56 165.96 808.526 165.682 808.486 165.412 808.466 165.151 808.466 164.588 808.466 164.082 808.588 163.634 808.832 163.19 809.071 162.841 809.403 162.585 809.83 162.33 810.256 162.202 810.747 162.202 811.304L162.202 819.0 159.116 819.0 149.903 816.997 149.102 819.264 123.722 801.545ZM123.722 801.545 123.722 801.545L123.722 801.545 123.722 801.545 123.722 801.545 123.722 801.545 123.722 801.545 123.722 801.545 123.722 801.545 123.722 801.545 123.722 801.545 149.102 819.264 149.903 816.997 159.116 819.0 178.979 809.369 176.166 809.676C176.087 809.392 175.947 809.125 175.749 808.875 175.555 808.625 175.294 808.423 174.964 808.27 174.635 808.116 174.232 808.04 173.754 808.04 173.112 808.04 172.572 808.179 172.135 808.457 171.703 808.736 171.49 809.097 171.496 809.54 171.49 809.92 171.629 810.23 171.913 810.469 172.203 810.707 172.68 810.903 173.345 811.057L175.578 811.534C176.817 811.801 177.737 812.224 178.339 812.804 178.947 813.384 179.254 814.142 179.26 815.08 179.254 815.903 179.013 816.631 178.536 817.261 178.064 817.886 177.408 818.375 176.567 818.727 175.726 819.08 174.76 819.256 173.669 819.256 172.067 819.256 170.777 818.92 169.8 818.25 168.822 817.574 168.24 816.634 168.053 815.429L171.061 815.139C171.197 815.73 171.487 816.176 171.93 816.477 172.374 816.778 172.95 816.929 173.661 816.929 174.393 816.929 174.982 816.778 175.425 816.477 175.874 816.176 176.098 815.804 176.098 815.361 176.098 814.986 175.953 814.676 175.663 814.432 175.379 814.187 174.936 814.0 174.334 813.869L172.101 813.401C170.845 813.139 169.916 812.699 169.314 812.08 168.712 811.455 168.413 810.665 168.419 809.71 168.413 808.903 168.632 808.205 169.075 807.614 169.524 807.017 170.146 806.557 170.942 806.233 171.743 805.903 172.666 805.739 173.712 805.739 175.246 805.739 176.453 806.065 177.334 806.719 178.22 807.372 178.768 808.256 178.979 809.369L159.116 819.0 149.903 816.997 149.102 819.264 123.722 801.545Z" fill="#333333" stroke="#0000ff" stroke-width="0"/><path d="M485.662 247.435L482.474 247.435C482.384 246.912 482.216 246.449 481.972 246.045 481.727 245.636 481.423 245.29 481.06 245.006 480.696 244.722 480.281 244.509 479.815 244.366 479.355 244.219 478.858 244.145 478.324 244.145 477.375 244.145 476.534 244.384 475.801 244.861 475.068 245.332 474.494 246.026 474.08 246.94 473.665 247.849 473.457 248.96 473.457 250.273 473.457 251.608 473.665 252.733 474.08 253.648 474.5 254.557 475.074 255.244 475.801 255.71 476.534 256.17 477.372 256.401 478.315 256.401 478.838 256.401 479.327 256.332 479.781 256.196 480.241 256.054 480.653 255.847 481.017 255.574 481.386 255.301 481.696 254.966 481.946 254.568 482.202 254.17 482.378 253.716 482.474 253.205L485.662 253.222C485.543 254.051 485.284 254.83 484.886 255.557 484.494 256.284 483.98 256.926 483.344 257.483 482.707 258.034 481.963 258.466 481.111 258.778 480.259 259.085 479.313 259.239 478.273 259.239 476.739 259.239 475.369 258.884 474.165 258.173 472.96 257.463 472.011 256.438 471.318 255.097 470.625 253.756 470.278 252.148 470.278 250.273 470.278 248.392 470.628 246.784 471.327 245.449 472.026 244.108 472.977 243.082 474.182 242.372 475.386 241.662 476.75 241.307 478.273 241.307 479.244 241.307 480.148 241.443 480.983 241.716 481.818 241.989 482.563 242.389 483.216 242.918 483.869 243.44 484.406 244.082 484.827 244.844 485.253 245.599 485.531 246.463 485.662 247.435ZM485.662 247.435 485.662 247.435L485.662 247.435 485.662 247.435 485.662 247.435 485.662 247.435 485.662 247.435 485.662 247.435 485.662 247.435 485.662 247.435 485.662 247.435 485.662 247.435 485.662 247.435 485.662 247.435 492.188 259.264C491.359 259.264 490.612 259.116 489.947 258.821 489.288 258.52 488.765 258.077 488.379 257.491 487.998 256.906 487.808 256.185 487.808 255.327 487.808 254.588 487.944 253.977 488.217 253.494 488.489 253.011 488.862 252.625 489.333 252.335 489.805 252.045 490.336 251.827 490.927 251.679 491.523 251.526 492.14 251.415 492.776 251.347 493.543 251.267 494.165 251.196 494.643 251.134 495.12 251.065 495.467 250.963 495.683 250.827 495.904 250.685 496.015 250.466 496.015 250.17L496.015 250.119C496.015 249.477 495.825 248.98 495.444 248.628 495.063 248.276 494.515 248.099 493.799 248.099 493.043 248.099 492.444 248.264 492.001 248.594 491.563 248.923 491.268 249.312 491.114 249.761L488.234 249.352C488.461 248.557 488.836 247.892 489.359 247.358 489.881 246.818 490.521 246.415 491.276 246.148 492.032 245.875 492.867 245.739 493.782 245.739 494.413 245.739 495.04 245.812 495.665 245.96 496.29 246.108 496.862 246.352 497.379 246.693 497.896 247.028 498.31 247.486 498.623 248.065 498.941 248.645 499.1 249.369 499.1 250.239L499.1 259.0 496.134 259.0 496.134 257.202 496.032 257.202C495.844 257.565 495.58 257.906 495.239 258.224 494.904 258.537 494.481 258.79 493.969 258.983 493.464 259.17 492.87 259.264 492.188 259.264L485.662 247.435ZM485.662 247.435 485.662 247.435L485.662 247.435 485.662 247.435 485.662 247.435 485.662 247.435 485.662 247.435 485.662 247.435 485.662 247.435 485.662 247.435 485.662 247.435 485.662 247.435 485.662 247.435 492.188 259.264 492.989 256.997C493.609 256.997 494.146 256.875 494.6 256.631 495.055 256.381 495.404 256.051 495.648 255.642 495.898 255.233 496.023 254.787 496.023 254.304L496.023 252.761C495.927 252.841 495.762 252.915 495.529 252.983 495.302 253.051 495.046 253.111 494.762 253.162 494.478 253.213 494.197 253.259 493.918 253.298 493.64 253.338 493.398 253.372 493.194 253.401 492.734 253.463 492.322 253.565 491.958 253.707 491.594 253.849 491.308 254.048 491.097 254.304 490.887 254.554 490.782 254.878 490.782 255.276 490.782 255.844 490.989 256.273 491.404 256.562 491.819 256.852 492.347 256.997 492.989 256.997L492.188 259.264 485.662 247.435ZM485.662 247.435 485.662 247.435L485.662 247.435 485.662 247.435 485.662 247.435 485.662 247.435 485.662 247.435 485.662 247.435 485.662 247.435 485.662 247.435 485.662 247.435 485.662 247.435 492.188 259.264 492.989 256.997 512.549 249.369 509.737 249.676C509.657 249.392 509.518 249.125 509.319 248.875 509.126 248.625 508.864 248.423 508.535 248.27 508.205 248.116 507.802 248.04 507.325 248.04 506.683 248.04 506.143 248.179 505.705 248.457 505.273 248.736 505.06 249.097 505.066 249.54 505.06 249.92 505.2 250.23 505.484 250.469 505.773 250.707 506.251 250.903 506.915 251.057L509.148 251.534C510.387 251.801 511.308 252.224 511.91 252.804 512.518 253.384 512.825 254.142 512.83 255.08 512.825 255.903 512.583 256.631 512.106 257.261 511.634 257.886 510.978 258.375 510.137 258.727 509.296 259.08 508.33 259.256 507.239 259.256 505.637 259.256 504.347 258.92 503.37 258.25 502.393 257.574 501.81 256.634 501.623 255.429L504.631 255.139C504.768 255.73 505.058 256.176 505.501 256.477 505.944 256.778 506.521 256.929 507.231 256.929 507.964 256.929 508.552 256.778 508.995 256.477 509.444 256.176 509.668 255.804 509.668 255.361 509.668 254.986 509.523 254.676 509.234 254.432 508.95 254.187 508.506 254.0 507.904 253.869L505.671 253.401C504.415 253.139 503.487 252.699 502.884 252.08 502.282 251.455 501.984 250.665 501.989 249.71 501.984 248.903 502.202 248.205 502.646 247.614 503.094 247.017 503.717 246.557 504.512 246.233 505.313 245.903 506.237 245.739 507.282 245.739 508.816 245.739 510.023 246.065 510.904 246.719 511.79 247.372 512.339 248.256 512.549 249.369L492.989 256.997 492.188 259.264 485.662 247.435ZM485.662 247.435 485.662 247.435L485.662 247.435 485.662 247.435 485.662 247.435 485.662 247.435 485.662 247.435 485.662 247.435 485.662 247.435 485.662 247.435 485.662 247.435 492.188 259.264 492.989 256.997 512.549 249.369 525.721 249.369 522.908 249.676C522.829 249.392 522.69 249.125 522.491 248.875 522.298 248.625 522.036 248.423 521.707 248.27 521.377 248.116 520.974 248.04 520.496 248.04 519.854 248.04 519.315 248.179 518.877 248.457 518.445 248.736 518.232 249.097 518.238 249.54 518.232 249.92 518.371 250.23 518.656 250.469 518.945 250.707 519.423 250.903 520.087 251.057L522.32 251.534C523.559 251.801 524.479 252.224 525.082 252.804 525.69 253.384 525.996 254.142 526.002 255.08 525.996 255.903 525.755 256.631 525.278 257.261 524.806 257.886 524.15 258.375 523.309 258.727 522.468 259.08 521.502 259.256 520.411 259.256 518.809 259.256 517.519 258.92 516.542 258.25 515.565 257.574 514.982 256.634 514.795 255.429L517.803 255.139C517.94 255.73 518.229 256.176 518.673 256.477 519.116 256.778 519.692 256.929 520.403 256.929 521.136 256.929 521.724 256.778 522.167 256.477 522.616 256.176 522.84 255.804 522.84 255.361 522.84 254.986 522.695 254.676 522.406 254.432 522.121 254.187 521.678 254.0 521.076 253.869L518.843 253.401C517.587 253.139 516.658 252.699 516.056 252.08 515.454 251.455 515.156 250.665 515.161 249.71 515.156 248.903 515.374 248.205 515.817 247.614 516.266 247.017 516.888 246.557 517.684 246.233 518.485 245.903 519.408 245.739 520.454 245.739 521.988 245.739 523.195 246.065 524.076 246.719 524.962 247.372 525.511 248.256 525.721 249.369L512.549 249.369 492.989 256.997 492.188 259.264 485.662 247.435ZM485.662 247.435 485.662 247.435L485.662 247.435 485.662 247.435 485.662 247.435 485.662 247.435 485.662 247.435 485.662 247.435 485.662 247.435 485.662 247.435 492.188 259.264 492.989 256.997 512.549 249.369 525.721 249.369 528.546 259.0 528.546 245.909 531.631 245.909 531.631 259.0 528.546 259.0 525.721 249.369 512.549 249.369 492.989 256.997 492.188 259.264 485.662 247.435ZM485.662 247.435 485.662 247.435L485.662 247.435 485.662 247.435 485.662 247.435 485.662 247.435 485.662 247.435 485.662 247.435 485.662 247.435 492.188 259.264 492.989 256.997 512.549 249.369 525.721 249.369 528.546 259.0 530.097 244.051C529.609 244.051 529.188 243.889 528.836 243.565 528.484 243.236 528.308 242.841 528.308 242.381 528.308 241.915 528.484 241.52 528.836 241.196 529.188 240.866 529.609 240.702 530.097 240.702 530.592 240.702 531.012 240.866 531.359 241.196 531.711 241.52 531.887 241.915 531.887 242.381 531.887 242.841 531.711 243.236 531.359 243.565 531.012 243.889 530.592 244.051 530.097 244.051L528.546 259.0 525.721 249.369 512.549 249.369 492.989 256.997 492.188 259.264 485.662 247.435ZM485.662 247.435 485.662 247.435L485.662 247.435 485.662 247.435 485.662 247.435 485.662 247.435 485.662 247.435 485.662 247.435 492.188 259.264 492.989 256.997 512.549 249.369 525.721 249.369 528.546 259.0 530.097 244.051 540.514 259.256C539.236 259.256 538.128 258.974 537.19 258.412 536.253 257.849 535.526 257.062 535.009 256.051 534.497 255.04 534.241 253.858 534.241 252.506 534.241 251.153 534.497 249.969 535.009 248.952 535.526 247.935 536.253 247.145 537.19 246.582 538.128 246.02 539.236 245.739 540.514 245.739 541.793 245.739 542.901 246.02 543.838 246.582 544.776 247.145 545.5 247.935 546.011 248.952 546.528 249.969 546.787 251.153 546.787 252.506 546.787 253.858 546.528 255.04 546.011 256.051 545.5 257.062 544.776 257.849 543.838 258.412 542.901 258.974 541.793 259.256 540.514 259.256L530.097 244.051 528.546 259.0 525.721 249.369 512.549 249.369 492.989 256.997 492.188 259.264 485.662 247.435ZM485.662 247.435 485.662 247.435L485.662 247.435 485.662 247.435 485.662 247.435 485.662 247.435 485.662 247.435 492.188 259.264 492.989 256.997 512.549 249.369 525.721 249.369 528.546 259.0 530.097 244.051 540.514 259.256 540.531 256.784C541.224 256.784 541.804 256.594 542.27 256.213 542.736 255.827 543.082 255.31 543.31 254.662 543.543 254.014 543.659 253.293 543.659 252.497 543.659 251.696 543.543 250.972 543.31 250.324 543.082 249.67 542.736 249.151 542.27 248.764 541.804 248.378 541.224 248.185 540.531 248.185 539.821 248.185 539.23 248.378 538.759 248.764 538.293 249.151 537.943 249.67 537.71 250.324 537.483 250.972 537.369 251.696 537.369 252.497 537.369 253.293 537.483 254.014 537.71 254.662 537.943 255.31 538.293 255.827 538.759 256.213 539.23 256.594 539.821 256.784 540.531 256.784L540.514 259.256 530.097 244.051 528.546 259.0 525.721 249.369 512.549 249.369 492.989 256.997 492.188 259.264 485.662 247.435ZM485.662 247.435 485.662 247.435L485.662 247.435 485.662 247.435 485.662 247.435 485.662 247.435 492.188 259.264 492.989 256.997 512.549 249.369 525.721 249.369 528.546 259.0 530.097 244.051 540.514 259.256 540.531 256.784 549.406 263.909 549.406 245.909 552.44 245.909 552.44 248.074 552.619 248.074C552.778 247.756 553.002 247.418 553.292 247.06 553.582 246.696 553.974 246.386 554.468 246.131 554.962 245.869 555.593 245.739 556.36 245.739 557.371 245.739 558.283 245.997 559.096 246.514 559.914 247.026 560.562 247.784 561.039 248.79 561.522 249.79 561.763 251.017 561.763 252.472 561.763 253.909 561.528 255.131 561.056 256.136 560.585 257.142 559.942 257.909 559.13 258.438 558.317 258.966 557.397 259.23 556.369 259.23 555.619 259.23 554.996 259.105 554.502 258.855 554.008 258.605 553.61 258.304 553.309 257.952 553.013 257.594 552.783 257.256 552.619 256.938L552.491 256.938 552.491 263.909 549.406 263.909 540.531 256.784 540.514 259.256 530.097 244.051 528.546 259.0 525.721 249.369 512.549 249.369 492.989 256.997 492.188 259.264 485.662 247.435ZM485.662 247.435 485.662 247.435L485.662 247.435 485.662 247.435 485.662 247.435 492.188 259.264 492.989 256.997 512.549 249.369 525.721 249.369 528.546 259.0 530.097 244.051 540.514 259.256 540.531 256.784 549.406 263.909 552.431 252.455C552.431 253.301 552.55 254.043 552.789 254.679 553.033 255.315 553.383 255.812 553.837 256.17 554.298 256.523 554.854 256.699 555.508 256.699 556.19 256.699 556.761 256.517 557.221 256.153 557.681 255.784 558.028 255.281 558.261 254.645 558.499 254.003 558.619 253.273 558.619 252.455 558.619 251.642 558.502 250.92 558.269 250.29 558.036 249.659 557.69 249.165 557.229 248.807 556.769 248.449 556.195 248.27 555.508 248.27 554.849 248.27 554.289 248.443 553.829 248.79 553.369 249.136 553.019 249.622 552.781 250.247 552.548 250.872 552.431 251.608 552.431 252.455L549.406 263.909 540.531 256.784 540.514 259.256 530.097 244.051 528.546 259.0 525.721 249.369 512.549 249.369 492.989 256.997 492.188 259.264 485.662 247.435ZM485.662 247.435 485.662 247.435L485.662 247.435 485.662 247.435 492.188 259.264 492.989 256.997 512.549 249.369 525.721 249.369 528.546 259.0 530.097 244.051 540.514 259.256 540.531 256.784 549.406 263.909 552.431 252.455 570.201 259.256C568.888 259.256 567.755 258.983 566.8 258.438 565.852 257.886 565.121 257.108 564.61 256.102 564.099 255.091 563.843 253.901 563.843 252.531 563.843 251.185 564.099 250.003 564.61 248.986 565.127 247.963 565.849 247.168 566.775 246.599 567.701 246.026 568.789 245.739 570.039 245.739 570.846 245.739 571.607 245.869 572.323 246.131 573.045 246.386 573.681 246.784 574.232 247.324 574.789 247.864 575.227 248.551 575.545 249.386 575.863 250.216 576.022 251.205 576.022 252.352L576.022 253.298 565.292 253.298 565.292 251.219 573.065 251.219C573.059 250.628 572.931 250.102 572.681 249.642 572.431 249.176 572.082 248.81 571.633 248.543 571.19 248.276 570.673 248.142 570.082 248.142 569.451 248.142 568.897 248.295 568.42 248.602 567.942 248.903 567.57 249.301 567.303 249.795 567.042 250.284 566.908 250.821 566.903 251.406L566.903 253.222C566.903 253.983 567.042 254.636 567.32 255.182 567.599 255.722 567.988 256.136 568.488 256.426 568.988 256.71 569.573 256.852 570.244 256.852 570.692 256.852 571.099 256.79 571.462 256.665 571.826 256.534 572.141 256.344 572.408 256.094 572.675 255.844 572.877 255.534 573.013 255.165L575.894 255.489C575.712 256.25 575.366 256.915 574.854 257.483 574.349 258.045 573.701 258.483 572.911 258.795 572.121 259.102 571.218 259.256 570.201 259.256L552.431 252.455 549.406 263.909 540.531 256.784 540.514 259.256 530.097 244.051 528.546 259.0 525.721 249.369 512.549 249.369 492.989 256.997 492.188 259.264 485.662 247.435ZM485.662 247.435 485.662 247.435L485.662 247.435 492.188 259.264 492.989 256.997 512.549 249.369 525.721 249.369 528.546 259.0 530.097 244.051 540.514 259.256 540.531 256.784 549.406 263.909 552.431 252.455 570.201 259.256 578.632 259.0 578.632 245.909 581.717 245.909 581.717 259.0 578.632 259.0 570.201 259.256 552.431 252.455 549.406 263.909 540.531 256.784 540.514 259.256 530.097 244.051 528.546 259.0 525.721 249.369 512.549 249.369 492.989 256.997 492.188 259.264 485.662 247.435ZM485.662 247.435 485.662 247.435L492.188 259.264 492.989 256.997 512.549 249.369 525.721 249.369 528.546 259.0 530.097 244.051 540.514 259.256 540.531 256.784 549.406 263.909 552.431 252.455 570.201 259.256 578.632 259.0 580.183 244.051C579.695 244.051 579.274 243.889 578.922 243.565 578.57 243.236 578.393 242.841 578.393 242.381 578.393 241.915 578.57 241.52 578.922 241.196 579.274 240.866 579.695 240.702 580.183 240.702 580.678 240.702 581.098 240.866 581.445 241.196 581.797 241.52 581.973 241.915 581.973 242.381 581.973 242.841 581.797 243.236 581.445 243.565 581.098 243.889 580.678 244.051 580.183 244.051L578.632 259.0 570.201 259.256 552.431 252.455 549.406 263.909 540.531 256.784 540.514 259.256 530.097 244.051 528.546 259.0 525.721 249.369 512.549 249.369 492.989 256.997 492.188 259.264 485.662 247.435ZM485.662 247.435 492.188 259.264L492.989 256.997 512.549 249.369 525.721 249.369 528.546 259.0 530.097 244.051 540.514 259.256 540.531 256.784 549.406 263.909 552.431 252.455 570.201 259.256 578.632 259.0 580.183 244.051 588.657 259.264C587.827 259.264 587.08 259.116 586.415 258.821 585.756 258.52 585.234 258.077 584.847 257.491 584.467 256.906 584.276 256.185 584.276 255.327 584.276 254.588 584.413 253.977 584.685 253.494 584.958 253.011 585.33 252.625 585.802 252.335 586.273 252.045 586.805 251.827 587.396 251.679 587.992 251.526 588.609 251.415 589.245 251.347 590.012 251.267 590.634 251.196 591.112 251.134 591.589 251.065 591.935 250.963 592.151 250.827 592.373 250.685 592.484 250.466 592.484 250.17L592.484 250.119C592.484 249.477 592.293 248.98 591.913 248.628 591.532 248.276 590.984 248.099 590.268 248.099 589.512 248.099 588.913 248.264 588.469 248.594 588.032 248.923 587.737 249.312 587.583 249.761L584.702 249.352C584.93 248.557 585.305 247.892 585.827 247.358 586.35 246.818 586.989 246.415 587.745 246.148 588.501 245.875 589.336 245.739 590.251 245.739 590.881 245.739 591.509 245.812 592.134 245.96 592.759 246.108 593.33 246.352 593.847 246.693 594.364 247.028 594.779 247.486 595.092 248.065 595.41 248.645 595.569 249.369 595.569 250.239L595.569 259.0 592.603 259.0 592.603 257.202 592.501 257.202C592.313 257.565 592.049 257.906 591.708 258.224 591.373 258.537 590.95 258.79 590.438 258.983 589.933 259.17 589.339 259.264 588.657 259.264L580.183 244.051 578.632 259.0 570.201 259.256 552.431 252.455 549.406 263.909 540.531 256.784 540.514 259.256 530.097 244.051 528.546 259.0 525.721 249.369 512.549 249.369 492.989 256.997 492.188 259.264ZM492.188 259.264 492.989 256.997L512.549 249.369 525.721 249.369 528.546 259.0 530.097 244.051 540.514 259.256 540.531 256.784 549.406 263.909 552.431 252.455 570.201 259.256 578.632 259.0 580.183 244.051 588.657 259.264 589.458 256.997C590.077 256.997 590.614 256.875 591.069 256.631 591.523 256.381 591.873 256.051 592.117 255.642 592.367 255.233 592.492 254.787 592.492 254.304L592.492 252.761C592.396 252.841 592.231 252.915 591.998 252.983 591.771 253.051 591.515 253.111 591.231 253.162 590.947 253.213 590.665 253.259 590.387 253.298 590.109 253.338 589.867 253.372 589.663 253.401 589.202 253.463 588.79 253.565 588.427 253.707 588.063 253.849 587.776 254.048 587.566 254.304 587.356 254.554 587.251 254.878 587.251 255.276 587.251 255.844 587.458 256.273 587.873 256.562 588.288 256.852 588.816 256.997 589.458 256.997L588.657 259.264 580.183 244.051 578.632 259.0 570.201 259.256 552.431 252.455 549.406 263.909 540.531 256.784 540.514 259.256 530.097 244.051 528.546 259.0 525.721 249.369 512.549 249.369 492.989 256.997Z" fill="#333333" stroke="#0000ff" stroke-width="0"/><path d="M196.963 259.0L193.588 259.0 199.733 241.545 203.636 241.545 209.79 259.0 206.415 259.0 201.753 245.125 201.616 245.125 196.963 259.0ZM196.963 259.0 196.963 259.0L196.963 259.0 196.963 259.0 196.963 259.0 196.963 259.0 196.963 259.0 196.963 259.0 196.963 259.0 196.963 259.0 196.963 259.0 196.963 259.0 196.963 259.0 196.963 259.0 197.074 252.156 206.278 252.156 206.278 254.696 197.074 254.696 197.074 252.156 196.963 259.0ZM196.963 259.0 196.963 259.0L196.963 259.0 196.963 259.0 196.963 259.0 196.963 259.0 196.963 259.0 196.963 259.0 196.963 259.0 196.963 259.0 196.963 259.0 196.963 259.0 196.963 259.0 197.074 252.156 211.952 259.0 211.952 245.909 214.944 245.909 214.944 248.091 215.08 248.091C215.319 247.335 215.728 246.753 216.308 246.344 216.893 245.929 217.56 245.722 218.31 245.722 218.481 245.722 218.671 245.73 218.881 245.747 219.097 245.759 219.276 245.778 219.418 245.807L219.418 248.645C219.288 248.599 219.08 248.56 218.796 248.526 218.518 248.486 218.248 248.466 217.987 248.466 217.424 248.466 216.918 248.588 216.469 248.832 216.026 249.071 215.677 249.403 215.421 249.83 215.165 250.256 215.038 250.747 215.038 251.304L215.038 259.0 211.952 259.0 197.074 252.156 196.963 259.0ZM196.963 259.0 196.963 259.0L196.963 259.0 196.963 259.0 196.963 259.0 196.963 259.0 196.963 259.0 196.963 259.0 196.963 259.0 196.963 259.0 196.963 259.0 196.963 259.0 197.074 252.156 211.952 259.0 221.468 259.0 221.468 245.909 224.46 245.909 224.46 248.091 224.596 248.091C224.835 247.335 225.244 246.753 225.823 246.344 226.408 245.929 227.076 245.722 227.826 245.722 227.996 245.722 228.187 245.73 228.397 245.747 228.613 245.759 228.792 245.778 228.934 245.807L228.934 248.645C228.803 248.599 228.596 248.56 228.312 248.526 228.033 248.486 227.763 248.466 227.502 248.466 226.94 248.466 226.434 248.588 225.985 248.832 225.542 249.071 225.192 249.403 224.937 249.83 224.681 250.256 224.553 250.747 224.553 251.304L224.553 259.0 221.468 259.0 211.952 259.0 197.074 252.156 196.963 259.0ZM196.963 259.0 196.963 259.0L196.963 259.0 196.963 259.0 196.963 259.0 196.963 259.0 196.963 259.0 196.963 259.0 196.963 259.0 196.963 259.0 196.963 259.0 197.074 252.156 211.952 259.0 221.468 259.0 234.516 259.264C233.687 259.264 232.94 259.116 232.275 258.821 231.616 258.52 231.093 258.077 230.707 257.491 230.326 256.906 230.136 256.185 230.136 255.327 230.136 254.588 230.272 253.977 230.545 253.494 230.817 253.011 231.19 252.625 231.661 252.335 232.133 252.045 232.664 251.827 233.255 251.679 233.852 251.526 234.468 251.415 235.104 251.347 235.871 251.267 236.494 251.196 236.971 251.134 237.448 251.065 237.795 250.963 238.011 250.827 238.232 250.685 238.343 250.466 238.343 250.17L238.343 250.119C238.343 249.477 238.153 248.98 237.772 248.628 237.391 248.276 236.843 248.099 236.127 248.099 235.371 248.099 234.772 248.264 234.329 248.594 233.891 248.923 233.596 249.312 233.442 249.761L230.562 249.352C230.789 248.557 231.164 247.892 231.687 247.358 232.21 246.818 232.849 246.415 233.604 246.148 234.36 245.875 235.195 245.739 236.11 245.739 236.741 245.739 237.369 245.812 237.994 245.96 238.619 246.108 239.19 246.352 239.707 246.693 240.224 247.028 240.638 247.486 240.951 248.065 241.269 248.645 241.428 249.369 241.428 250.239L241.428 259.0 238.462 259.0 238.462 257.202 238.36 257.202C238.173 257.565 237.908 257.906 237.567 258.224 237.232 258.537 236.809 258.79 236.298 258.983 235.792 259.17 235.198 259.264 234.516 259.264L221.468 259.0 211.952 259.0 197.074 252.156 196.963 259.0ZM196.963 259.0 196.963 259.0L196.963 259.0 196.963 259.0 196.963 259.0 196.963 259.0 196.963 259.0 196.963 259.0 196.963 259.0 196.963 259.0 197.074 252.156 211.952 259.0 221.468 259.0 234.516 259.264 235.317 256.997C235.937 256.997 236.474 256.875 236.928 256.631 237.383 256.381 237.732 256.051 237.977 255.642 238.227 255.233 238.352 254.787 238.352 254.304L238.352 252.761C238.255 252.841 238.09 252.915 237.857 252.983 237.63 253.051 237.374 253.111 237.09 253.162 236.806 253.213 236.525 253.259 236.246 253.298 235.968 253.338 235.727 253.372 235.522 253.401 235.062 253.463 234.65 253.565 234.286 253.707 233.923 253.849 233.636 254.048 233.425 254.304 233.215 254.554 233.11 254.878 233.11 255.276 233.11 255.844 233.317 256.273 233.732 256.562 234.147 256.852 234.675 256.997 235.317 256.997L234.516 259.264 221.468 259.0 211.952 259.0 197.074 252.156 196.963 259.0ZM196.963 259.0 196.963 259.0L196.963 259.0 196.963 259.0 196.963 259.0 196.963 259.0 196.963 259.0 196.963 259.0 196.963 259.0 197.074 252.156 211.952 259.0 221.468 259.0 234.516 259.264 235.317 256.997 247.343 254.892 247.335 251.168 247.829 251.168 252.533 245.909 256.138 245.909 250.352 252.352 249.712 252.352 247.343 254.892 235.317 256.997 234.516 259.264 221.468 259.0 211.952 259.0 197.074 252.156 196.963 259.0ZM196.963 259.0 196.963 259.0L196.963 259.0 196.963 259.0 196.963 259.0 196.963 259.0 196.963 259.0 196.963 259.0 197.074 252.156 211.952 259.0 221.468 259.0 234.516 259.264 235.317 256.997 247.343 254.892 244.531 259.0 244.531 241.545 247.616 241.545 247.616 259.0 244.531 259.0 247.343 254.892 235.317 256.997 234.516 259.264 221.468 259.0 211.952 259.0 197.074 252.156 196.963 259.0ZM196.963 259.0 196.963 259.0L196.963 259.0 196.963 259.0 196.963 259.0 196.963 259.0 196.963 259.0 197.074 252.156 211.952 259.0 221.468 259.0 234.516 259.264 235.317 256.997 247.343 254.892 244.531 259.0 252.746 259.0 248.485 253.043 250.565 250.869 256.437 259.0 252.746 259.0 244.531 259.0 247.343 254.892 235.317 256.997 234.516 259.264 221.468 259.0 211.952 259.0 197.074 252.156 196.963 259.0ZM196.963 259.0 196.963 259.0L196.963 259.0 196.963 259.0 196.963 259.0 196.963 259.0 197.074 252.156 211.952 259.0 221.468 259.0 234.516 259.264 235.317 256.997 247.343 254.892 244.531 259.0 252.746 259.0 258.195 259.0 258.195 245.909 261.28 245.909 261.28 259.0 258.195 259.0 252.746 259.0 244.531 259.0 247.343 254.892 235.317 256.997 234.516 259.264 221.468 259.0 211.952 259.0 197.074 252.156 196.963 259.0ZM196.963 259.0 196.963 259.0L196.963 259.0 196.963 259.0 196.963 259.0 197.074 252.156 211.952 259.0 221.468 259.0 234.516 259.264 235.317 256.997 247.343 254.892 244.531 259.0 252.746 259.0 258.195 259.0 259.746 244.051C259.257 244.051 258.837 243.889 258.484 243.565 258.132 243.236 257.956 242.841 257.956 242.381 257.956 241.915 258.132 241.52 258.484 241.196 258.837 240.866 259.257 240.702 259.746 240.702 260.24 240.702 260.661 240.866 261.007 241.196 261.359 241.52 261.536 241.915 261.536 242.381 261.536 242.841 261.359 243.236 261.007 243.565 260.661 243.889 260.24 244.051 259.746 244.051L258.195 259.0 252.746 259.0 244.531 259.0 247.343 254.892 235.317 256.997 234.516 259.264 221.468 259.0 211.952 259.0 197.074 252.156 196.963 259.0ZM196.963 259.0 196.963 259.0L196.963 259.0 196.963 259.0 197.074 252.156 211.952 259.0 221.468 259.0 234.516 259.264 235.317 256.997 247.343 254.892 244.531 259.0 252.746 259.0 258.195 259.0 259.746 244.051 274.799 249.369 271.987 249.676C271.907 249.392 271.768 249.125 271.569 248.875 271.376 248.625 271.114 248.423 270.785 248.27 270.455 248.116 270.052 248.04 269.575 248.04 268.933 248.04 268.393 248.179 267.955 248.457 267.523 248.736 267.31 249.097 267.316 249.54 267.31 249.92 267.45 250.23 267.734 250.469 268.023 250.707 268.501 250.903 269.165 251.057L271.398 251.534C272.637 251.801 273.558 252.224 274.16 252.804 274.768 253.384 275.075 254.142 275.08 255.08 275.075 255.903 274.833 256.631 274.356 257.261 273.884 257.886 273.228 258.375 272.387 258.727 271.546 259.08 270.58 259.256 269.489 259.256 267.887 259.256 266.597 258.92 265.62 258.25 264.643 257.574 264.06 256.634 263.873 255.429L266.881 255.139C267.018 255.73 267.308 256.176 267.751 256.477 268.194 256.778 268.771 256.929 269.481 256.929 270.214 256.929 270.802 256.778 271.245 256.477 271.694 256.176 271.918 255.804 271.918 255.361 271.918 254.986 271.773 254.676 271.484 254.432 271.2 254.187 270.756 254.0 270.154 253.869L267.921 253.401C266.665 253.139 265.737 252.699 265.134 252.08 264.532 251.455 264.234 250.665 264.239 249.71 264.234 248.903 264.452 248.205 264.896 247.614 265.344 247.017 265.967 246.557 266.762 246.233 267.563 245.903 268.487 245.739 269.532 245.739 271.066 245.739 272.273 246.065 273.154 246.719 274.04 247.372 274.589 248.256 274.799 249.369L259.746 244.051 258.195 259.0 252.746 259.0 244.531 259.0 247.343 254.892 235.317 256.997 234.516 259.264 221.468 259.0 211.952 259.0 197.074 252.156 196.963 259.0Z" fill="#333333" stroke="#0000ff" stroke-width="0"/><path id="Arrakis" d="M66.0 273.734C77.7229 258.422 100.755 195.438 99.0998 66.0L382.0 66.0 382.0 451.865 229.43 451.865 229.43 483.0 66.0 483.0 66.0 273.734Z" stroke="#bfbfbf" stroke-width="10"/><path id="Cassiopeia" d="M382.0 451.0L382.0 66.0 816.0 66.0 816.0 275.35 625.413 275.35 625.413 372.366 527.012 372.366 527.012 451.0 382.0 451.0Z" stroke="#bfbfbf" stroke-width="10"/><path id="Mars" d="M243.887 1032.0L243.887 570.0 157.343 570.0C63.2317 570.0 48.3411 618.274 52.6597 642.411L52.6597 1032.0 243.887 1032.0Z" stroke="#bfbfbf" stroke-width="10"/><path id="Antares" d="M244.0 1032.0L244.0 570.0 436.0 570.0 436.0 1032.0 244.0 1032.0Z" stroke="#bfbfbf" stroke-width="10"/><path id="Sirius" d="M436.0 1033.0L436.0 570.0 484.371 570.0 532.742 570.0 532.742 761.428 809.0 761.428C779.201 966.843 642.417 1028.07 577.75 1033.0L436.0 1033.0Z" stroke="#bfbfbf" stroke-width="10"/><g id="f646ae2b-d4e6-4bc0-bf08-0958adb196d6"><rect xmlns="http://www.w3.org/2000/svg" id="2" x="692.25" y="163.0" width="36.0" height="36.0" fill="#f1e8fc" rx="18"/></g><g id="946d91c5-5b74-4dcd-a3a3-d11c67b34b8e"><rect xmlns="http://www.w3.org/2000/svg" id="1" x="92.0" y="388.25" width="36.0" height="36.0" fill="#f1e8fc" rx="18"/></g><g id="31019ebc-5aa3-42ac-8317-94ca25eaa272"><rect xmlns="http://www.w3.org/2000/svg" id="5" x="319.75" y="116.0" width="36.0" height="36.0" fill="#f1e8fc" rx="18"/></g><g id="7ac43e8b-364f-4acb-ad0a-484ca38c0d33"><rect xmlns="http://www.w3.org/2000/svg" id="6" x="726.0" y="779.75" width="36.0" height="36.0" fill="#f1e8fc" rx="18"/></g><g id="0b7fca50-1a28-4b69-9b61-ea86a06acb77"><rect xmlns="http://www.w3.org/2000/svg" id="9" x="75.75" y="634.0" width="36.0" height="36.0" fill="#f1e8fc" rx="18"/></g><g id="9b53b230-08e9-4459-b31c-a64ac2152a3c"><rect xmlns="http://www.w3.org/2000/svg" id="1" x="429.75" y="114.0" width="36.0" height="36.0" fill="#f1e8fc" rx="18"/></g></svg>